<svg id="Capa_1" data-name="Capa 1" xmlns="http://www.w3.org/2000/svg" xmlns:xlink="http://www.w3.org/1999/xlink" viewBox="0 0 49.9 49.9"><defs><style>.cls-1{fill:url(#Degradado_sin_nombre_10);}.cls-2{fill:#fff;}</style><linearGradient id="Degradado_sin_nombre_10" x1="18.52" y1="4.26" x2="32.69" y2="49.87" gradientUnits="userSpaceOnUse"><stop offset="0" stop-color="#5581c1"/><stop offset="0.05" stop-color="#4d77ba"/><stop offset="0.15" stop-color="#426bb1"/><stop offset="0.24" stop-color="#3f67ae"/><stop offset="0.73" stop-color="#253f8b"/><stop offset="1" stop-color="#20376b"/></linearGradient></defs><circle class="cls-1" cx="24.95" cy="24.95" r="24.95"/><path class="cls-2" d="M25,43.46A18.45,18.45,0,1,1,43.22,21.9c.5,2.84.16,3.24-2.75,3.24h-1.8a1.18,1.18,0,0,0-1.37,1.12c-.06.9.57,1.24,1.39,1.27s1.56,0,2.34,0c1.81.07,2.25.66,1.79,2.37A18.39,18.39,0,0,1,25,43.46ZM18.13,12.61a7.54,7.54,0,0,0-2.84.45c-2.23.84-3.81,2.26-4.06,4.75s1,4.08,3,5.24a17.72,17.72,0,0,0,3.65,1.46A13.33,13.33,0,0,1,21.57,26a3,3,0,0,1,.84,4.38c-1.27,1.59-3.1,1.71-4.92,1.49S13.9,31,13.54,29s-1.59-1.33-2.4-1.13c-1.3.31-.45,1.38-.2,2A5.57,5.57,0,0,0,12.3,32c2.43,2.39,7.46,3,10.61,1.25a5.26,5.26,0,0,0,.59-9.07A15.49,15.49,0,0,0,18.58,22a10,10,0,0,1-3.43-1.52,3,3,0,0,1-.05-4.67c2.51-2.09,6.89-.85,7.72,2.27.41,1.55,1.54.9,2.3.84,1-.07.54-1,.4-1.54C24.75,14.46,21.93,12.62,18.13,12.61ZM28.21,26a9,9,0,0,0,1.05,4.83,6.22,6.22,0,0,0,6.13,3.3,6.06,6.06,0,0,0,5.47-3.47c.26-.51.86-1.32-.06-1.6-.64-.2-1.59-.52-2.17.55-1.06,2-2.49,2.64-4.37,2.28a4.11,4.11,0,0,1-3.21-3.65A12.27,12.27,0,0,1,31,24.36c.34-2.36,1.5-3.8,3.36-4.12s3.19.41,4.33,2.82c.49,1,1.34.63,2,.58,1-.08.54-.93.42-1.39a5.5,5.5,0,0,0-3.67-3.87C32.44,16.61,28.21,20.13,28.21,26Zm7.88.27c-.1-.78-.47-1.42-1.41-1.43a1.31,1.31,0,0,0-1.44,1.44,1.29,1.29,0,0,0,1.28,1.41C35.46,27.8,35.93,27.27,36.09,26.31Z" transform="translate(-0.05 -0.05)"/></svg>