<?xml version="1.0" encoding="utf-8"?>
<!-- Generator: Adobe Illustrator 25.0.1, SVG Export Plug-In . SVG Version: 6.00 Build 0)  -->
<svg version="1.1" id="Capa_1" xmlns="http://www.w3.org/2000/svg" xmlns:xlink="http://www.w3.org/1999/xlink" x="0px" y="0px"
	 viewBox="0 0 640 640" style="enable-background:new 0 0 640 640;" xml:space="preserve">
<style type="text/css">
	.st0{opacity:0.6;}
	.st1{fill:#00BDFF;}
	.st2{fill-opacity:0;stroke:#000000;stroke-width:0.3;}
	.st3{fill-opacity:0;}
	.st4{opacity:0.5;}
	.st5{opacity:0.52;}
	.st6{fill:#3D7771;fill-opacity:0;}
	.st7{opacity:0.62;}
	.st8{fill:#3CC6BA;fill-opacity:0;stroke:#3CC6BA;stroke-miterlimit:10;}
	.st9{fill:#3CC6BA;fill-opacity:0;}
	.st10{fill:none;stroke:#3CC6BA;stroke-miterlimit:10;}
	.st11{fill:url(#aJlz38RxZ_1_);}
	.st12{fill:#138D83;fill-opacity:0;stroke:#138D83;}
	.st13{fill:#138D83;fill-opacity:0;}
	.st14{fill:#138D83;fill-opacity:0;stroke:#000000;stroke-width:0.3;}
	.st15{opacity:0.5;fill:#138D83;fill-opacity:0;}
	.st16{opacity:0.14;fill:#3CC6BA;fill-opacity:0;stroke:#3CC6BA;stroke-width:0.3;}
	.st17{opacity:0.46;}
	.st18{fill:url(#c3dNdOiGQ_2_);}
	.st19{opacity:0.41;}
	.st20{opacity:0.46;fill:#3D7771;fill-opacity:0;stroke:#138D83;}
</style>
<g class="st0">
	<g>
		<path id="bSZtNpcRQ" class="st1" d="M600.3,242.7c0,0.3,0.2,0.5,0.5,0.5s0.5-0.2,0.5-0.5s-0.2-0.5-0.5-0.5
			S600.3,242.5,600.3,242.7z"/>
	</g>
	<g>
		<g>
			<path id="bSZtNpcRQ_1_" class="st2" d="M600.3,242.7c0,0.3,0.2,0.5,0.5,0.5s0.5-0.2,0.5-0.5s-0.2-0.5-0.5-0.5
				S600.3,242.5,600.3,242.7z"/>
		</g>
	</g>
</g>
<g class="st0">
	<g>
		<path id="b8mB5Ng4m" class="st3" d="M600.3,242.7c0,0.3,0.2,0.5,0.5,0.5s0.5-0.2,0.5-0.5s-0.2-0.5-0.5-0.5
			S600.3,242.5,600.3,242.7z"/>
	</g>
	<g>
		<g>
			<path id="b8mB5Ng4m_1_" class="st2" d="M600.3,242.7c0,0.3,0.2,0.5,0.5,0.5s0.5-0.2,0.5-0.5s-0.2-0.5-0.5-0.5
				S600.3,242.5,600.3,242.7z"/>
		</g>
	</g>
</g>
<g class="st0">
	<g>
		<path id="bNMejoHDu" class="st1" d="M605.2,247.6c0,0.3,0.2,0.5,0.5,0.5s0.5-0.2,0.5-0.5s-0.2-0.5-0.5-0.5
			S605.2,247.4,605.2,247.6z"/>
	</g>
	<g>
		<g>
			<path id="bNMejoHDu_1_" class="st2" d="M605.2,247.6c0,0.3,0.2,0.5,0.5,0.5s0.5-0.2,0.5-0.5s-0.2-0.5-0.5-0.5
				S605.2,247.4,605.2,247.6z"/>
		</g>
	</g>
</g>
<g class="st0">
	<g>
		<path id="c2J5sWPoS2" class="st3" d="M605.2,247.6c0,0.3,0.2,0.5,0.5,0.5s0.5-0.2,0.5-0.5s-0.2-0.5-0.5-0.5
			S605.2,247.4,605.2,247.6z"/>
	</g>
	<g>
		<g>
			<path id="c2J5sWPoS2_1_" class="st2" d="M605.2,247.6c0,0.3,0.2,0.5,0.5,0.5s0.5-0.2,0.5-0.5s-0.2-0.5-0.5-0.5
				S605.2,247.4,605.2,247.6z"/>
		</g>
	</g>
</g>
<g class="st0">
	<g>
		<path id="ei3EPRPRf" class="st1" d="M603.3,233.9c0,0.3,0.2,0.5,0.5,0.5s0.5-0.2,0.5-0.5s-0.2-0.5-0.5-0.5
			S603.3,233.6,603.3,233.9z"/>
	</g>
	<g>
		<g>
			<path id="ei3EPRPRf_1_" class="st2" d="M603.3,233.9c0,0.3,0.2,0.5,0.5,0.5s0.5-0.2,0.5-0.5s-0.2-0.5-0.5-0.5
				S603.3,233.6,603.3,233.9z"/>
		</g>
	</g>
</g>
<g class="st0">
	<g>
		<path id="b7plTHf0uK" class="st3" d="M603.3,233.9c0,0.3,0.2,0.5,0.5,0.5s0.5-0.2,0.5-0.5s-0.2-0.5-0.5-0.5
			S603.3,233.6,603.3,233.9z"/>
	</g>
	<g>
		<g>
			<path id="b7plTHf0uK_1_" class="st2" d="M603.3,233.9c0,0.3,0.2,0.5,0.5,0.5s0.5-0.2,0.5-0.5s-0.2-0.5-0.5-0.5
				S603.3,233.6,603.3,233.9z"/>
		</g>
	</g>
</g>
<g class="st4">
	<g>
		<path id="d18JgoAbB" class="st3" d="M426,699.3c-168.7-53.7-172.2-154.6-274-215.6C103,454.4,23.1,453-25,465.3"/>
	</g>
	<g>
		<g>
			<path id="d18JgoAbB_1_" class="st3" d="M426,699.3c-168.7-53.7-172.2-154.6-274-215.6C103,454.4,23.1,453-25,465.3"/>
		</g>
	</g>
</g>
<g class="st5">
	<g>
		<path id="hv37MiaLt" class="st6" d="M424.6,702.3c-168.7-53.7-172.2-154.6-274-215.6c-49-29.3-128.9-30.7-177-18.4"/>
	</g>
	<g class="st7">
		<g>
			<path id="hv37MiaLt_1_" class="st8" d="M426.3,700.1c-168.7-53.7-172.2-154.6-274-215.6c-49-29.3-128.9-30.7-177-18.4"/>
		</g>
	</g>
</g>
<g class="st4">
	<g>
		<path id="c2JEQr1Ucz" class="st3" d="M717,599.5c0,0-90.5,14.8-174.2,11.8c-71.6-2.5-169.5-46.3-230.3-52.8
			c-82-8.9-149.8,36.4-299.3,3.8C-33.7,552-92.1,516-92.1,516"/>
	</g>
	<g>
		<g>
			<path id="c2JEQr1Ucz_1_" class="st2" d="M717,599.5c0,0-90.5,14.8-174.2,11.8c-71.6-2.5-169.5-46.3-230.3-52.8
				c-82-8.9-149.8,36.4-299.3,3.8C-33.7,552-92.1,516-92.1,516"/>
		</g>
	</g>
</g>
<g class="st4">
	<g>
		<g>
			<g id="b3iFLpRVVQ_19_">
				<path class="st9" d="M717,599.5c0,0-90.5,14.8-174.2,11.8c-71.6-2.5-169.5-46.3-230.3-52.8c-82-8.9-149.8,36.4-299.3,3.8
					C-33.7,552-92.1,516-92.1,516"/>
				<path class="st10" d="M717,599.5c0,0-90.5,14.8-174.2,11.8c-71.6-2.5-169.5-46.3-230.3-52.8c-82-8.9-149.8,36.4-299.3,3.8
					C-33.7,552-92.1,516-92.1,516"/>
			</g>
		</g>
		<g>
			<g>
				<g id="b3iFLpRVVQ_18_">
					<path class="st9" d="M717,599.5c0,0-90.5,14.8-174.2,11.8c-71.6-2.5-169.5-46.3-230.3-52.8c-82-8.9-149.8,36.4-299.3,3.8
						C-33.7,552-92.1,516-92.1,516"/>
					<path class="st10" d="M717,599.5c0,0-90.5,14.8-174.2,11.8c-71.6-2.5-169.5-46.3-230.3-52.8c-82-8.9-149.8,36.4-299.3,3.8
						C-33.7,552-92.1,516-92.1,516"/>
				</g>
			</g>
		</g>
	</g>
</g>
<g class="st4">
	<g>
		
			<linearGradient id="aJlz38RxZ_1_" gradientUnits="userSpaceOnUse" x1="332.9512" y1="694.7351" x2="291.1712" y2="767.9751" gradientTransform="matrix(1 0 0 1 0 -150)">
			<stop  offset="0" style="stop-color:#000000"/>
			<stop  offset="1" style="stop-color:#138D83;stop-opacity:0"/>
		</linearGradient>
		<path id="aJlz38RxZ" class="st11" d="M-90.9,483.2c-0.3,11.2-2,67.2-5.1,168c81.1,2.9,729.7,25.8,810.8,28.7
			c0.8-25.3,1.2-39.4,1.3-42.2c-35.5,14.5-93.5,34.6-174.8,31.7c-222.9-7.9-310.8-169-457.7-201.5C9.5,452.2-44.2,478.2-90.9,483.2z
			"/>
	</g>
	<g>
		<g>
			<path id="aJlz38RxZ_2_" class="st12" d="M714.3,659.6c-35.5,14.5-93.5,34.6-174.8,31.7c-222.9-7.9-310.8-169-457.7-201.5
				C7.8,474-46,500.1-92.7,505.1c-0.3,11.2-0.2,45.4-3.3,146.2"/>
		</g>
	</g>
</g>
<g class="st4">
	<g>
		<path id="d1WS2M95J2" class="st13" d="M-91.1,482.5c-0.3,11.2-2,67.2-5.1,168c81.1,2.9,729.7,25.8,810.8,28.7
			c0.8-25.3,1.2-39.4,1.3-42.2c-35.5,14.5-93.5,34.6-174.8,31.7c-222.9-7.9-310.8-169-457.7-201.5C9.4,451.5-44.3,477.5-91.1,482.5z
			"/>
	</g>
	<g>
		<g>
			<path id="d1WS2M95J2_1_" class="st13" d="M-91.3,483c-0.3,11.2-2,67.2-5.1,168c81.1,2.9,729.7,25.8,810.8,28.7
				c0.8-25.3,1.2-39.4,1.3-42.2c-35.5,14.5-93.5,34.6-174.8,31.7c-222.9-7.9-310.8-169-457.7-201.5C9.2,452-44.5,478-91.3,483z"/>
		</g>
	</g>
</g>
<g class="st4">
	<g>
		<path id="a4ZUGG0qd" class="st13" d="M716.2,623.3c-30.3-1.1-104.5-3.7-159.6-20c-50.4-14.9-77.3-29.6-112.8-37.1
			c-60.1-12.8-122.3,23-216.6,18.9c-75.6-3.2-121.1-21.8-146.5-31.5C31.9,531.3-56.5,478.4-90.1,444.4"/>
	</g>
	<g>
		<g>
			<path id="a4ZUGG0qd_1_" class="st14" d="M716.2,623.3c-30.3-1.1-104.5-3.7-159.6-20c-50.4-14.9-77.3-29.6-112.8-37.1
				c-60.1-12.8-122.3,23-216.6,18.9c-75.6-3.2-121.1-21.8-146.5-31.5C31.9,531.3-56.5,478.4-90.1,444.4"/>
		</g>
	</g>
</g>
<path id="a28YzMQ9yC" class="st15" d="M716.2,623.3c-30.3-1.1-104.5-3.7-159.6-20c-50.4-14.9-77.3-29.6-112.8-37.1
	c-60.1-12.8-122.3,23-216.6,18.9c-75.6-3.2-121.1-21.8-146.5-31.5C31.9,531.3-56.5,478.4-90.1,444.4"/>
<path id="a28YzMQ9yC_1_" class="st16" d="M717.6,634.3c-30.3-1.1-104.5-3.7-159.6-20c-50.4-14.9-77.3-29.6-112.8-37.1
	c-60.1-12.8-122.3,23-216.6,18.9C153,593,107.5,574.4,82.1,564.7C33.3,542.3-55.1,489.4-88.7,455.4"/>
<g class="st4">
	<g class="st17">
		
			<linearGradient id="c3dNdOiGQ_2_" gradientUnits="userSpaceOnUse" x1="313.175" y1="682.801" x2="311.3851" y2="742.2911" gradientTransform="matrix(1 0 0 1 0 -150)">
			<stop  offset="0" style="stop-color:#FFFFFF"/>
			<stop  offset="1" style="stop-color:#0A19A3;stop-opacity:0.5"/>
		</linearGradient>
		<path id="c3dNdOiGQ" class="st18" d="M227.2,585.2c-75.6-3.2-121.1-21.8-146.5-31.5C32,531.3-56.5,478.4-90,444.4
			c-0.4,13.7-2.5,82.5-6.2,206.2c81.1,2.9,729.7,25.8,810.8,28.7c1-32.5,1.5-50.6,1.6-54.2c-30.3-1.1-100.4-2.7-173-25.9
			c-37.1-11.9-66.7-25.8-102.1-33.3C384.1,553.4,321.6,589.3,227.2,585.2z"/>
	</g>
	<g class="st19">
		<g>
			<path id="c3dNdOiGQ_1_" class="st3" d="M228.5,586.1c-75.6-3.2-121.1-21.8-146.5-31.5C33.3,532.2-55.2,479.3-88.7,445.3
				c-0.4,13.7-2.5,82.5-6.2,206.2c81.1,2.9,729.7,25.8,810.8,28.7c1-32.5,1.5-50.6,1.6-54.2c-30.3-1.1-100.4-2.7-173-25.9
				c-37.1-11.9-66.7-25.8-102.1-33.3C385.4,554.3,322.9,590.2,228.5,586.1z"/>
		</g>
	</g>
</g>
<g class="st4">
	<g>
		<path id="bbU9BGT58" class="st3" d="M298.5,585.2c-75.6-3.2-121.1-21.8-146.5-31.5c-48.7-22.4-137.2-75.3-170.7-109.3
			c-0.4,13.7-2.5,82.5-6.2,206.2c81.1,2.9,729.7,25.8,810.8,28.7c1-32.5,1.5-50.6,1.6-54.2c-30.3-1.1-100.4-2.7-173-25.9
			c-37.1-11.9-66.7-25.8-102.1-33.3C455.4,553.4,392.9,589.3,298.5,585.2z"/>
	</g>
	<g>
		<g>
			<path id="bbU9BGT58_1_" class="st20" d="M298.5,585.3c-75.6-3.2-121.1-21.8-146.5-31.5c-48.8-22.5-137.2-75.3-170.8-109.3
				c-0.4,13.7-2.5,82.5-6.2,206.1c81.1,2.9,729.7,25.8,810.8,28.7c1-32.5,1.5-50.6,1.6-54.2c-30.3-1.1-100.4-2.7-173-25.9
				c-37.1-11.9-66.7-25.8-102.1-33.3C455.3,553.5,392.8,589.3,298.5,585.3z"/>
		</g>
	</g>
</g>
<g class="st4">
	<g>
		<path id="eCZfCJ1e3" class="st1" d="M5.7,506.5c0,0.2-0.2,0.4-0.4,0.4c-0.2,0-0.4-0.2-0.4-0.4c0-0.2,0.2-0.4,0.4-0.4
			C5.6,506.1,5.7,506.3,5.7,506.5z"/>
	</g>
	<g>
		<g>
			<path id="eCZfCJ1e3_1_" class="st2" d="M5.7,506.5c0,0.2-0.2,0.4-0.4,0.4c-0.2,0-0.4-0.2-0.4-0.4c0-0.2,0.2-0.4,0.4-0.4
				C5.6,506.1,5.7,506.3,5.7,506.5z"/>
		</g>
	</g>
</g>
<g class="st4">
	<g>
		<path id="b12zBJBdkt" class="st3" d="M5.7,506.5c0,0.2-0.2,0.4-0.4,0.4c-0.2,0-0.4-0.2-0.4-0.4c0-0.2,0.2-0.4,0.4-0.4
			C5.6,506.1,5.7,506.3,5.7,506.5z"/>
	</g>
	<g>
		<g>
			<path id="b12zBJBdkt_1_" class="st2" d="M5.7,506.5c0,0.2-0.2,0.4-0.4,0.4c-0.2,0-0.4-0.2-0.4-0.4c0-0.2,0.2-0.4,0.4-0.4
				C5.6,506.1,5.7,506.3,5.7,506.5z"/>
		</g>
	</g>
</g>
<g class="st4">
	<g>
		<path id="g28BNExOk4" class="st1" d="M-3.3,514c0,0.2-0.2,0.4-0.4,0.4s-0.4-0.2-0.4-0.4s0.2-0.4,0.4-0.4
			C-3.4,513.6-3.3,513.8-3.3,514z"/>
	</g>
	<g>
		<g>
			<path id="g28BNExOk4_1_" class="st2" d="M-3.3,514c0,0.2-0.2,0.4-0.4,0.4s-0.4-0.2-0.4-0.4s0.2-0.4,0.4-0.4
				C-3.4,513.6-3.3,513.8-3.3,514z"/>
		</g>
	</g>
</g>
<g class="st4">
	<g>
		<path id="cRIALqWOR" class="st3" d="M-3.3,514c0,0.2-0.2,0.4-0.4,0.4s-0.4-0.2-0.4-0.4s0.2-0.4,0.4-0.4
			C-3.4,513.6-3.3,513.8-3.3,514z"/>
	</g>
	<g>
		<g>
			<path id="cRIALqWOR_1_" class="st2" d="M-3.3,514c0,0.2-0.2,0.4-0.4,0.4s-0.4-0.2-0.4-0.4s0.2-0.4,0.4-0.4
				C-3.4,513.6-3.3,513.8-3.3,514z"/>
		</g>
	</g>
</g>
<g>
	<g>
		<path id="cGgCS3Ls2" class="st1" d="M-208.4,376.1c0,0.2-0.2,0.4-0.4,0.4s-0.4-0.2-0.4-0.4c0-0.2,0.2-0.4,0.4-0.4
			C-208.6,375.7-208.4,375.9-208.4,376.1z"/>
	</g>
	<g>
		<g>
			<path id="cGgCS3Ls2_1_" class="st2" d="M-208.4,376.1c0,0.2-0.2,0.4-0.4,0.4s-0.4-0.2-0.4-0.4c0-0.2,0.2-0.4,0.4-0.4
				C-208.6,375.7-208.4,375.9-208.4,376.1z"/>
		</g>
	</g>
</g>
<g>
	<g>
		<path id="b1ww95QeTu" class="st3" d="M-208.4,376.1c0,0.2-0.2,0.4-0.4,0.4s-0.4-0.2-0.4-0.4c0-0.2,0.2-0.4,0.4-0.4
			C-208.6,375.7-208.4,375.9-208.4,376.1z"/>
	</g>
	<g>
		<g>
			<path id="b1ww95QeTu_1_" class="st2" d="M-208.4,376.1c0,0.2-0.2,0.4-0.4,0.4s-0.4-0.2-0.4-0.4c0-0.2,0.2-0.4,0.4-0.4
				C-208.6,375.7-208.4,375.9-208.4,376.1z"/>
		</g>
	</g>
</g>
<g>
	<g>
		<path id="f9B1qgU" class="st1" d="M-210.8,369.2c0,0.2-0.2,0.4-0.4,0.4s-0.4-0.2-0.4-0.4c0-0.2,0.2-0.4,0.4-0.4
			C-210.9,368.8-210.8,369-210.8,369.2z"/>
	</g>
	<g>
		<g>
			<path id="f9B1qgU_1_" class="st2" d="M-210.8,369.2c0,0.2-0.2,0.4-0.4,0.4s-0.4-0.2-0.4-0.4c0-0.2,0.2-0.4,0.4-0.4
				C-210.9,368.8-210.8,369-210.8,369.2z"/>
		</g>
	</g>
</g>
<g>
	<g>
		<path id="d4nwI9beZl" class="st3" d="M-210.8,369.2c0,0.2-0.2,0.4-0.4,0.4s-0.4-0.2-0.4-0.4c0-0.2,0.2-0.4,0.4-0.4
			C-210.9,368.8-210.8,369-210.8,369.2z"/>
	</g>
	<g>
		<g>
			<path id="d4nwI9beZl_1_" class="st2" d="M-210.8,369.2c0,0.2-0.2,0.4-0.4,0.4s-0.4-0.2-0.4-0.4c0-0.2,0.2-0.4,0.4-0.4
				C-210.9,368.8-210.8,369-210.8,369.2z"/>
		</g>
	</g>
</g>
<g>
	<g>
		<path id="b33C1Mg9WZ" class="st1" d="M-217.4,383.7c0,0.2-0.2,0.4-0.4,0.4s-0.4-0.2-0.4-0.4c0-0.2,0.2-0.4,0.4-0.4
			C-217.6,383.3-217.4,383.5-217.4,383.7z"/>
	</g>
	<g>
		<g>
			<path id="b33C1Mg9WZ_1_" class="st2" d="M-217.4,383.7c0,0.2-0.2,0.4-0.4,0.4s-0.4-0.2-0.4-0.4c0-0.2,0.2-0.4,0.4-0.4
				C-217.6,383.3-217.4,383.5-217.4,383.7z"/>
		</g>
	</g>
</g>
<g>
	<g>
		<path id="d1cYJ17Bkl" class="st3" d="M-217.4,383.7c0,0.2-0.2,0.4-0.4,0.4s-0.4-0.2-0.4-0.4c0-0.2,0.2-0.4,0.4-0.4
			C-217.6,383.3-217.4,383.5-217.4,383.7z"/>
	</g>
	<g>
		<g>
			<path id="d1cYJ17Bkl_1_" class="st2" d="M-217.4,383.7c0,0.2-0.2,0.4-0.4,0.4s-0.4-0.2-0.4-0.4c0-0.2,0.2-0.4,0.4-0.4
				C-217.6,383.3-217.4,383.5-217.4,383.7z"/>
		</g>
	</g>
</g>
<g>
	<g>
		<path id="bbU9BGT58_2_" class="st20" d="M298.5,585.3c-75.6-3.2-121.1-21.8-146.5-31.5c-48.8-22.5-137.2-75.3-170.8-109.3
			c-0.4,13.7-2.5,82.5-6.2,206.1c81.1,2.9,729.7,25.8,810.8,28.7c1-32.5,1.5-50.6,1.6-54.2c-30.3-1.1-100.4-2.7-173-25.9
			c-37.1-11.9-66.7-25.8-102.1-33.3C455.3,553.5,392.8,589.3,298.5,585.3z"/>
	</g>
</g>
</svg>
