<?xml version="1.0" encoding="utf-8"?>
<!-- Generator: Adobe Illustrator 25.0.1, SVG Export Plug-In . SVG Version: 6.00 Build 0)  -->
<svg version="1.1" id="Capa_1" xmlns="http://www.w3.org/2000/svg" xmlns:xlink="http://www.w3.org/1999/xlink" x="0px" y="0px"
	 viewBox="0 0 500 500" style="enable-background:new 0 0 500 500;" xml:space="preserve">
<style type="text/css">
	.st0{fill:#FFFFFF;stroke:#62C3BB;stroke-width:6;stroke-miterlimit:10;}
	.st1{fill:#7061C8;}
	.st2{fill:#2C2172;}
	.st3{fill:#ECC57A;}
	.st4{fill:#FFFFFF;}
</style>
<g>
	<g id="referencias">
		<g>
			<circle class="st0" cx="250" cy="250" r="202.1"/>
			<g>
				<polygon class="st1" points="327.6,193.7 284.1,193.7 284.1,146.8 				"/>
				<path class="st1" d="M279.6,202.7h53.9v157.4h-167V139.9h108.6v58.3C275.1,200.6,277.1,202.7,279.6,202.7z"/>
			</g>
			<g>
				<polygon class="st2" points="284.1,146.8 327.6,193.7 284.1,193.7 				"/>
			</g>
			<g>
				<path class="st3" d="M301.3,261.5H198.7c-3.2,0-5.9,2.6-5.9,5.9c0,3.2,2.6,5.9,5.9,5.9h102.6c3.2,0,5.9-2.6,5.9-5.9
					C307.1,264.1,304.5,261.5,301.3,261.5z"/>
				<path class="st3" d="M301.3,291.5H198.7c-3.2,0-5.9,2.6-5.9,5.9s2.6,5.9,5.9,5.9h102.6c3.2,0,5.9-2.6,5.9-5.9
					S304.5,291.5,301.3,291.5z"/>
				<path class="st3" d="M198.7,333.1h46.9c3.2,0,5.9-2.6,5.9-5.9s-2.6-5.9-5.9-5.9h-46.9c-3.2,0-5.9,2.6-5.9,5.9
					S195.5,333.1,198.7,333.1z"/>
			</g>
			<path class="st4" d="M250.7,217.2h0.6c3.3,0,6-2.7,6-6s-2.7-6-6-6h-5.2l-12.7-32.9c-0.9-2.3-3.1-3.8-5.5-3.8l0,0
				c-2.4,0-4.6,1.5-5.6,3.8l-13.3,33h-4.6c-3.3,0-6,2.7-6,6c0,3.2,2.6,5.9,5.8,6l-4.9,12c-1.2,3.1,0.2,6.6,3.3,7.8s6.6-0.2,7.8-3.3
				l6.7-16.5h20.8l6.3,16.4c0.9,2.4,3.2,3.8,5.6,3.8c0.7,0,1.5-0.1,2.2-0.4c3.1-1.2,4.6-4.7,3.4-7.8L250.7,217.2z M221.8,205.2
				l5.8-14.4l5.6,14.4H221.8z"/>
		</g>
	</g>
	<g id="vectores">
	</g>
</g>
</svg>
