<?xml version="1.0" encoding="utf-8"?>
<!-- Generator: Adobe Illustrator 25.0.1, SVG Export Plug-In . SVG Version: 6.00 Build 0)  -->
<svg version="1.1" id="Capa_1" xmlns="http://www.w3.org/2000/svg" xmlns:xlink="http://www.w3.org/1999/xlink" x="0px" y="0px"
	 viewBox="0 0 500 500" style="enable-background:new 0 0 500 500;" xml:space="preserve">
<style type="text/css">
	.st0{fill:#FFFFFF;stroke:#62C3BB;stroke-width:6;stroke-miterlimit:10;}
	.st1{fill:#7061C8;}
	.st2{fill:#2C2172;}
	.st3{fill:#ECC57A;}
	.st4{fill:#FFFFFF;}
	.st5{fill:#64C0B9;}
</style>
<g>
	<g id="referencias">
		<g>
			<circle class="st0" cx="250" cy="250" r="202.1"/>
			<g>
				<polygon class="st1" points="327.6,163.7 284.1,163.7 284.1,116.8 				"/>
				<path class="st1" d="M279.6,172.7h53.9v157.4h-167V109.9h108.6v58.3C275.1,170.6,277.1,172.7,279.6,172.7z"/>
			</g>
			<g>
				<polygon class="st2" points="284.1,116.8 327.6,163.7 284.1,163.7 				"/>
			</g>
			<g>
				<path class="st3" d="M301.3,231.5H198.7c-3.2,0-5.9,2.6-5.9,5.9c0,3.2,2.6,5.9,5.9,5.9h102.6c3.2,0,5.9-2.6,5.9-5.9
					C307.1,234.1,304.5,231.5,301.3,231.5z"/>
				<path class="st3" d="M301.3,261.5H198.7c-3.2,0-5.9,2.6-5.9,5.9s2.6,5.9,5.9,5.9h102.6c3.2,0,5.9-2.6,5.9-5.9
					S304.5,261.5,301.3,261.5z"/>
				<path class="st3" d="M198.7,303.1h46.9c3.2,0,5.9-2.6,5.9-5.9s-2.6-5.9-5.9-5.9h-46.9c-3.2,0-5.9,2.6-5.9,5.9
					S195.5,303.1,198.7,303.1z"/>
			</g>
			<path class="st4" d="M250.7,187.2h0.6c3.3,0,6-2.7,6-6s-2.7-6-6-6h-5.2l-12.7-32.9c-0.9-2.3-3.1-3.8-5.5-3.8l0,0
				c-2.4,0-4.6,1.5-5.6,3.8l-13.3,33h-4.6c-3.3,0-6,2.7-6,6c0,3.2,2.6,5.9,5.8,6l-4.9,12c-1.2,3.1,0.2,6.6,3.3,7.8s6.6-0.2,7.8-3.3
				l6.7-16.5h20.8l6.3,16.4c0.9,2.4,3.2,3.8,5.6,3.8c0.7,0,1.5-0.1,2.2-0.4c3.1-1.2,4.6-4.7,3.4-7.8L250.7,187.2z M221.8,175.2
				l5.8-14.4l5.6,14.4H221.8z"/>
		</g>
	</g>
	<g id="vectores">
	</g>
</g>
<g>
	<path class="st5" d="M151.7,380.5h-10.5l-1.7,5h-7.2l10.2-28.1h7.9l10.2,28.1h-7.2L151.7,380.5z M149.9,375.2l-3.5-10.3l-3.4,10.3
		H149.9z"/>
	<path class="st5" d="M179.6,385.5l-5.8-10.6h-1.6v10.6h-6.8v-28.1h11.5c2.2,0,4.1,0.4,5.7,1.2s2.7,1.8,3.5,3.2
		c0.8,1.3,1.2,2.8,1.2,4.5c0,1.9-0.5,3.5-1.6,5c-1.1,1.5-2.6,2.5-4.7,3.1l6.5,11.1H179.6z M172.1,370h4.2c1.3,0,2.2-0.3,2.8-0.9
		c0.6-0.6,0.9-1.5,0.9-2.6c0-1.1-0.3-1.9-0.9-2.5c-0.6-0.6-1.6-0.9-2.8-0.9h-4.2V370z"/>
	<path class="st5" d="M213.1,357.4v5.5h-7.4v22.6h-6.8v-22.6h-7.4v-5.5H213.1z"/>
	<path class="st5" d="M226.3,351.8l-9.6,4v-4.7l9.6-4.6V351.8z M225,357.4v28.1h-6.8v-28.1H225z"/>
	<path class="st5" d="M232.2,364c1.2-2.2,2.9-3.9,5-5.1c2.1-1.2,4.6-1.8,7.3-1.8c3.3,0,6.2,0.9,8.6,2.6s4,4.2,4.8,7.2h-7.5
		c-0.6-1.2-1.4-2.1-2.4-2.7c-1-0.6-2.2-0.9-3.5-0.9c-2.1,0-3.8,0.7-5.1,2.2c-1.3,1.5-2,3.4-2,5.9c0,2.5,0.7,4.4,2,5.9
		c1.3,1.5,3,2.2,5.1,2.2c1.3,0,2.5-0.3,3.5-0.9c1-0.6,1.8-1.5,2.4-2.7h7.5c-0.8,3-2.4,5.4-4.8,7.2c-2.4,1.7-5.2,2.6-8.6,2.6
		c-2.7,0-5.2-0.6-7.3-1.8c-2.1-1.2-3.8-2.9-5-5.1c-1.2-2.2-1.8-4.6-1.8-7.4S231,366.2,232.2,364z"/>
	<path class="st5" d="M270.4,357.4v16.8c0,1.7,0.4,3,1.2,3.9c0.8,0.9,2,1.4,3.6,1.4s2.8-0.5,3.7-1.4c0.9-0.9,1.3-2.2,1.3-3.9v-16.8
		h6.8v16.8c0,2.5-0.5,4.6-1.6,6.4s-2.5,3-4.3,3.9c-1.8,0.9-3.8,1.3-6,1.3s-4.2-0.4-5.9-1.3c-1.7-0.9-3.1-2.2-4.1-3.9
		c-1-1.7-1.5-3.9-1.5-6.4v-16.8H270.4z"/>
	<path class="st5" d="M300.3,380.2h9v5.3h-15.8v-28.1h6.8V380.2z"/>
	<path class="st5" d="M320.2,383.9c-2.2-1.2-3.9-2.9-5.2-5.1c-1.3-2.2-1.9-4.7-1.9-7.4c0-2.7,0.6-5.2,1.9-7.4c1.3-2.2,3-3.9,5.2-5.1
		c2.2-1.2,4.6-1.8,7.3-1.8c2.6,0,5.1,0.6,7.3,1.8s3.9,2.9,5.2,5.1c1.3,2.2,1.9,4.7,1.9,7.4c0,2.7-0.6,5.2-1.9,7.4
		c-1.3,2.2-3,3.9-5.2,5.1s-4.6,1.8-7.2,1.8C324.8,385.8,322.4,385.1,320.2,383.9z M332.8,377.3c1.3-1.5,2-3.5,2-5.9
		c0-2.5-0.7-4.5-2-5.9c-1.3-1.5-3.1-2.2-5.4-2.2c-2.3,0-4.1,0.7-5.4,2.2c-1.3,1.5-2,3.5-2,6c0,2.5,0.7,4.5,2,5.9
		c1.3,1.5,3.2,2.2,5.4,2.2C329.7,379.5,331.5,378.8,332.8,377.3z"/>
	<path class="st5" d="M351.8,384.8c-1.6-0.7-2.9-1.7-3.9-3s-1.5-2.9-1.5-4.7h7.3c0.1,1,0.5,1.8,1.1,2.4s1.4,0.8,2.4,0.8
		c1,0,1.8-0.2,2.4-0.7c0.6-0.5,0.9-1.1,0.9-1.9c0-0.7-0.2-1.3-0.7-1.7c-0.5-0.5-1-0.8-1.7-1.1s-1.6-0.6-2.9-1
		c-1.8-0.6-3.3-1.1-4.4-1.7c-1.1-0.6-2.1-1.4-3-2.5c-0.8-1.1-1.2-2.5-1.2-4.3c0-2.6,0.9-4.7,2.8-6.1c1.9-1.5,4.4-2.2,7.4-2.2
		c3.1,0,5.6,0.7,7.5,2.2c1.9,1.5,2.9,3.5,3,6.2h-7.4c-0.1-0.9-0.4-1.6-1-2.1c-0.6-0.5-1.4-0.8-2.4-0.8c-0.8,0-1.5,0.2-2,0.7
		c-0.5,0.4-0.8,1.1-0.8,1.9c0,0.9,0.4,1.6,1.3,2.1c0.9,0.5,2.2,1.1,4,1.6c1.8,0.6,3.3,1.2,4.4,1.8c1.1,0.6,2.1,1.4,2.9,2.4
		c0.8,1.1,1.2,2.4,1.2,4.1c0,1.6-0.4,3.1-1.2,4.4s-2,2.3-3.5,3.1c-1.5,0.8-3.4,1.2-5.5,1.2C355.3,385.8,353.4,385.4,351.8,384.8z"/>
</g>
</svg>
