<?xml version="1.0" encoding="utf-8"?>
<!-- Generator: Adobe Illustrator 25.4.1, SVG Export Plug-In . SVG Version: 6.00 Build 0)  -->
<svg version="1.1" xmlns="http://www.w3.org/2000/svg" xmlns:xlink="http://www.w3.org/1999/xlink" x="0px" y="0px"
	 viewBox="0 0 500 500" style="enable-background:new 0 0 500 500;" xml:space="preserve">
<style type="text/css">
	.st0{fill:#62C3BB;}
	.st1{fill:#336964;}
	.st2{fill:#3C8B83;}
	.st3{fill:#76C4BE;}
	.st4{fill:#255B55;}
	.st5{fill:none;stroke:#62C3BB;stroke-width:6;stroke-miterlimit:10;}
	.st6{fill:#EAB655;}
	.st7{fill:#6382C7;}
	.st8{fill:#FFFFFF;}
	.st9{fill:#3D67C5;}
	.st10{fill:#4D3BC7;}
	.st11{fill:#2C2172;}
	.st12{fill:#7061C8;}
	.st13{fill:#ECC57A;}
	.st14{fill:#100662;}
	.st15{fill:#052260;}
	.st16{fill:#0B3594;}
	.st17{fill:#233B70;}
	.st18{fill:none;stroke:#052260;stroke-width:6;stroke-miterlimit:10;}
	.st19{fill:#A6823C;}
	.st20{fill:#8E641F;}
	.st21{fill:none;stroke:#EAB655;stroke-width:6;stroke-miterlimit:10;}
	.st22{fill:#190F97;}
	.st23{fill:none;stroke:#4D3BC7;stroke-width:6;stroke-miterlimit:10;}
</style>
<g id="referencias">
	<g>
		<g>
			<path class="st0" d="M250,3.8v26.7c-97.5,0-180.2,63.6-208.8,151.6l-25.5-8.3c11.8-36.5,32.2-70,60.2-98
				C122.4,29.4,184.2,3.8,250,3.8z"/>
			<path class="st1" d="M121,427.6l-15.7,21.6c-10.3-7.5-20.2-15.9-29.4-25.1C29.4,377.6,3.8,315.8,3.8,250
				c0-26.2,4.1-51.9,11.9-76.1l25.5,8.3c-6.9,21.4-10.7,44.2-10.7,67.9C30.5,323,66.2,387.7,121,427.6z"/>
			<path class="st2" d="M394.8,449.2c-41.8,30.5-92,47-144.8,47c-52.7,0-102.9-16.5-144.7-47l15.7-21.6
				c36.2,26.4,80.8,41.9,129,41.9s92.8-15.5,129-41.9L394.8,449.2z"/>
			<path class="st3" d="M496.2,250c0,65.8-25.6,127.6-72.1,174.1c-9.2,9.2-19,17.6-29.4,25.1L379,427.6
				c54.8-39.9,90.5-104.6,90.5-177.6c0-23.7-3.8-46.5-10.7-67.9l25.5-8.3C492.1,198.1,496.2,223.8,496.2,250z"/>
			<path class="st4" d="M484.3,173.9l-25.5,8.3C430.2,94.1,347.5,30.5,250,30.5V3.8c65.8,0,127.6,25.6,174.1,72.1
				C452,103.8,472.5,137.3,484.3,173.9z"/>
		</g>
		<circle class="st0" cx="250" cy="250" r="202.1"/>
		<path class="st8" d="M197.5,193.8c-5.1,0-9.5,5.6-9.5,12.1c0,7.2,5,12.2,9.5,12.2h4.9v-7.8c0-2.3,1.9-4.2,4.2-4.2h22.8
			c2.3,0,4.2,1.9,4.2,4.2v7.8h87.7c-1.2-3.4-2-7.6-2-12.5c0-4.6,0.7-8.6,1.8-11.8H197.5z"/>
		<g>
			<g>
				<polygon class="st8" points="233.5,226.5 233.5,230.6 233.5,243.2 328.5,243.2 328.5,226.5 320.8,226.5 				"/>
			</g>
			<g>
				<path class="st8" d="M194.3,169.2c-19.4,0-31.3,21.2-31.3,37s9.3,37,31.3,37h8v-12.5v-4.2h-4.9c-0.5,0-0.9,0-1.4-0.1
					c-0.2,0-0.4,0-0.6-0.1c0,0,0,0,0,0c0,0,0,0,0,0c0,0,0,0,0,0c0,0,0,0,0,0c0,0-0.1,0-0.1,0c0,0,0,0-0.1,0c-0.1,0-0.3,0-0.4-0.1
					c-0.1,0-0.2,0-0.3,0c0,0-0.1,0-0.1,0h0c0,0,0,0-0.1,0c0,0,0,0,0,0c-0.1,0-0.2,0-0.3-0.1c0,0,0,0,0,0c0,0-0.1,0-0.1,0
					c0,0,0,0,0,0c0,0,0,0,0,0c-0.1,0-0.1,0-0.2-0.1c-0.1,0-0.2,0-0.2-0.1c-0.1,0-0.1,0-0.2,0c-0.1,0-0.3-0.1-0.4-0.1c0,0,0,0-0.1,0
					c-0.1,0-0.1,0-0.2-0.1c-0.1,0-0.1,0-0.2-0.1c-0.1-0.1-0.3-0.1-0.4-0.2c-0.1,0-0.2-0.1-0.3-0.1c-0.2-0.1-0.4-0.1-0.5-0.2
					c-0.1,0-0.1-0.1-0.2-0.1c-0.1-0.1-0.3-0.1-0.4-0.2c-0.2-0.1-0.3-0.2-0.5-0.3c-0.1-0.1-0.2-0.1-0.3-0.2c0,0,0,0,0,0
					c-0.1,0-0.1-0.1-0.2-0.1c-0.2-0.1-0.3-0.2-0.5-0.3c-0.1-0.1-0.2-0.2-0.4-0.2c0,0,0,0,0,0c-0.1-0.1-0.2-0.1-0.3-0.2
					c0,0-0.1,0-0.1-0.1c-0.2-0.1-0.4-0.3-0.6-0.4c-0.1-0.1-0.2-0.2-0.4-0.3c-0.1-0.1-0.2-0.2-0.3-0.2c-0.1-0.1-0.1-0.1-0.2-0.2
					c0,0,0,0,0,0c-0.1-0.1-0.1-0.1-0.2-0.2c-0.1,0-0.1-0.1-0.2-0.1c-0.1-0.1-0.2-0.1-0.2-0.2c-0.1-0.1-0.1-0.1-0.2-0.2
					c-0.1-0.1-0.1-0.1-0.2-0.2c-0.1-0.1-0.2-0.2-0.3-0.3c-0.3-0.3-0.6-0.7-1-1.1c0,0-0.1-0.1-0.1-0.1c-0.1-0.1-0.2-0.2-0.3-0.3
					c-0.1-0.1-0.2-0.2-0.3-0.3c0,0-0.1-0.1-0.1-0.1c0,0,0,0,0,0c0,0,0,0-0.1-0.1c0-0.1-0.1-0.1-0.1-0.2c-0.1-0.1-0.1-0.1-0.2-0.2
					c-0.3-0.4-0.5-0.8-0.7-1.1c-0.1-0.2-0.3-0.5-0.4-0.7c-0.1-0.2-0.2-0.3-0.3-0.5c0-0.1-0.1-0.1-0.1-0.2c-0.1-0.3-0.3-0.5-0.4-0.8
					c-0.1-0.2-0.2-0.4-0.2-0.6c-0.1-0.3-0.3-0.6-0.4-0.9c0,0,0,0,0-0.1c-0.1-0.2-0.2-0.5-0.3-0.8c0,0,0,0,0,0c0,0,0,0,0,0
					c0-0.1-0.1-0.3-0.1-0.4c0-0.1,0-0.1-0.1-0.2c0,0,0-0.1,0-0.1c0,0,0-0.1,0-0.1c0,0,0,0,0-0.1c0,0,0-0.1,0-0.1c0,0,0-0.1,0-0.1
					c0-0.1,0-0.2-0.1-0.3c0,0,0,0,0-0.1c0,0,0,0,0,0c-0.1-0.6-0.3-1.2-0.4-1.8c0-0.3-0.1-0.6-0.1-0.9c0-0.2-0.1-0.5-0.1-0.7
					c0-0.3-0.1-0.7-0.1-1c0-0.4,0-0.7,0-1.1s0-0.7,0-1.1c0-0.3,0-0.7,0.1-1c0-0.2,0-0.5,0.1-0.7c0-0.3,0.1-0.6,0.1-0.8
					c0.2-1.1,0.4-2.2,0.8-3.3c0,0,0-0.1,0-0.1c0.1-0.2,0.1-0.3,0.2-0.5c0-0.1,0.1-0.2,0.1-0.2c0.1-0.3,0.2-0.5,0.3-0.8
					c0.1-0.2,0.1-0.3,0.2-0.5c0-0.1,0.1-0.1,0.1-0.2c0,0,0,0,0,0c0,0,0-0.1,0-0.1c0.1-0.1,0.1-0.3,0.2-0.4c0-0.1,0.1-0.1,0.1-0.2
					c0-0.1,0.1-0.2,0.1-0.3c0,0,0-0.1,0.1-0.1c0.1-0.1,0.1-0.2,0.2-0.4c0.1-0.1,0.1-0.2,0.2-0.3c0,0,0,0,0,0
					c0.1-0.1,0.2-0.3,0.2-0.4c0,0,0,0,0,0c0.1-0.1,0.1-0.2,0.2-0.3c0.1-0.1,0.2-0.3,0.2-0.4c0.1-0.2,0.2-0.4,0.4-0.6
					c0.1-0.1,0.1-0.2,0.2-0.2c0.3-0.4,0.5-0.7,0.8-1c0,0,0.1-0.1,0.1-0.1c0,0,0-0.1,0.1-0.1c0.3-0.4,0.6-0.7,0.9-1
					c0.1-0.1,0.2-0.2,0.3-0.3c0.4-0.4,0.8-0.7,1.2-1.1c0,0,0.1-0.1,0.1-0.1c0.1-0.1,0.2-0.2,0.3-0.2c0.1-0.1,0.2-0.2,0.4-0.3
					c0.1-0.1,0.2-0.1,0.2-0.2c0.1-0.1,0.2-0.1,0.3-0.2c0.2-0.1,0.4-0.3,0.6-0.4c0,0,0.1,0,0.1-0.1c0.1-0.1,0.2-0.1,0.3-0.2
					c0.1-0.1,0.2-0.1,0.3-0.2c0.1-0.1,0.2-0.1,0.3-0.2c0.1-0.1,0.2-0.1,0.4-0.2c0,0,0.1,0,0.1,0c0,0,0.1,0,0.1-0.1
					c0.1-0.1,0.2-0.1,0.3-0.2c0.1,0,0.1-0.1,0.2-0.1c0,0,0,0,0,0c0,0,0,0,0,0c0.7-0.3,1.4-0.6,2.1-0.8c0,0,0.1,0,0.1,0
					c0.9-0.3,1.9-0.5,2.9-0.5c-0.3,0-0.6,0.1-0.9,0.1c0.1,0,0.1,0,0.2,0c0.3,0,0.5-0.1,0.8-0.1c0.5,0,0.9-0.1,1.4-0.1h123.3h7.7
					v-16.3H194.3z M195.5,226.3L195.5,226.3C195.5,226.3,195.5,226.3,195.5,226.3C195.5,226.3,195.5,226.3,195.5,226.3z"/>
			</g>
		</g>
		<path class="st8" d="M297.6,300.5h4.9c4.5,0,9.5-5,9.5-12.2c0-6.4-4.4-12.1-9.5-12.1H181c1.1,3.2,1.8,7.1,1.8,11.8
			c0,4.9-0.8,9.1-2,12.5h85.7v-7.8c0-2.3,1.9-4.2,4.2-4.2h22.8c2.3,0,4.2,1.9,4.2,4.2V300.5z"/>
		<g>
			<g>
				<polygon class="st8" points="170.5,308.8 170.5,325.5 266.5,325.5 266.5,313 266.5,308.8 178.2,308.8 				"/>
			</g>
			<g>
				<g>
					<path class="st8" d="M305.7,251.5h-72.2v7.8c0,1.7-1.1,3.3-2.7,3.9c-1.6,0.6-3.4,0.2-4.6-1.1l-8.3-9.1l-8.3,9.1
						c-0.8,0.9-1.9,1.4-3.1,1.4c-0.5,0-1-0.1-1.5-0.3c-1.6-0.6-2.7-2.2-2.7-3.9v-7.8h-31.9v16.3h7.7h124.3c0.2,0,0.5,0,0.7,0h0.1
						c0.2,0,0.4,0,0.6,0c0.3,0,0.5,0.1,0.7,0.1c0.2,0,0.5,0.1,0.7,0.1c0.2,0,0.4,0.1,0.7,0.1c0.2,0.1,0.4,0.1,0.6,0.2
						c0.1,0,0.1,0,0.2,0.1c-0.3-0.1-0.6-0.2-0.8-0.2c0.3,0.1,0.7,0.2,1,0.3c0.2,0.1,0.4,0.1,0.6,0.2c0.3,0.1,0.5,0.2,0.8,0.3
						c0,0,0.1,0,0.1,0c0,0,0,0,0.1,0c0.4,0.2,0.7,0.3,1.1,0.5c0,0,0,0,0.1,0c0.4,0.2,0.7,0.4,1,0.6c0,0,0.1,0,0.1,0c0,0,0,0,0,0
						c0.3,0.2,0.5,0.3,0.8,0.5c0.2,0.2,0.4,0.3,0.7,0.5c0.6,0.4,1.1,0.9,1.6,1.4c0.1,0.1,0.1,0.1,0.2,0.2c0.2,0.2,0.4,0.4,0.6,0.7
						c0.1,0.1,0.2,0.2,0.3,0.3c0,0,0,0,0.1,0.1c0.1,0.2,0.3,0.3,0.4,0.5c0.2,0.2,0.4,0.5,0.6,0.8c0.2,0.2,0.3,0.4,0.5,0.6
						c0,0.1,0.1,0.1,0.1,0.2c0.2,0.3,0.4,0.7,0.6,1c0,0.1,0.1,0.1,0.1,0.2c0.2,0.4,0.4,0.7,0.6,1.1c0,0,0,0.1,0.1,0.1
						c0.2,0.4,0.3,0.7,0.5,1.1c0,0.1,0.1,0.2,0.1,0.2c0,0,0,0,0,0c0.2,0.4,0.3,0.7,0.4,1.1c0,0.1,0,0.1,0.1,0.2
						c0.1,0.4,0.2,0.7,0.3,1.1c0,0,0,0,0,0.1c0,0,0,0.1,0,0.1c0,0,0,0.1,0,0.1c0,0.1,0,0.1,0.1,0.2c0.1,0.4,0.2,0.7,0.3,1.1
						c-0.1-0.3-0.1-0.6-0.2-0.9c0,0.1,0.1,0.2,0.1,0.3c0,0.2,0.1,0.4,0.1,0.6c0.1,0.3,0.1,0.6,0.1,0.8c0,0.3,0.1,0.6,0.1,0.8
						c0,0.2,0.1,0.5,0.1,0.7c0,0.3,0.1,0.7,0.1,1c0,0.4,0,0.7,0,1.1s0,0.7,0,1.1c0,0.3,0,0.6-0.1,0.9c0,0,0,0.1,0,0.1
						c0,0,0,0.1,0,0.1c0,0.1,0,0.2,0,0.3c0,0.1,0,0.2,0,0.2c0,0,0,0.1,0,0.1c0,0.3-0.1,0.5-0.1,0.8c0,0.3-0.1,0.6-0.1,0.8
						c-1.6,7.9-7.1,14.1-13.9,15.7c-0.2,0.1-0.4,0.1-0.7,0.1c-0.2,0-0.5,0.1-0.7,0.1c-0.2,0-0.5,0.1-0.7,0.1c-0.2,0-0.5,0-0.7,0
						c-0.2,0-0.5,0-0.7,0h-4.9v4.2v12.5h8c21.9,0,31.3-21.2,31.3-37C336.9,272.7,325,251.5,305.7,251.5z M319.4,281.6L319.4,281.6
						C319.4,281.6,319.4,281.6,319.4,281.6C319.4,281.6,319.4,281.6,319.4,281.6z"/>
				</g>
			</g>
		</g>
		<path class="st8" d="M274.9,300.5v4.2v4.2v4.2v12.5v4.2v1.1l1-1.1l3.1-3.4c0.3-0.3,0.6-0.6,0.9-0.8c0.6-0.4,1.4-0.6,2.1-0.6
			c0.8,0,1.5,0.2,2.2,0.6c0.3,0.2,0.7,0.5,0.9,0.8l3.1,3.4l1,1.1v-1.1v-4.2V313v-4.2v-4.2v-4.2v-3.6h-14.4V300.5z"/>
		<path class="st8" d="M210.7,222.3v4.2v4.2v12.5v4.2v1.1l1-1.1l3.1-3.4c0.3-0.3,0.6-0.6,0.9-0.8c0.6-0.4,1.4-0.6,2.1-0.6
			c0.8,0,1.5,0.2,2.1,0.6c0.3,0.2,0.7,0.5,0.9,0.8l3.1,3.4l1,1.1v-1.1v-4.2v-12.5v-4.2v-4.2v-4.2v-3.6h-14.4v3.6V222.3z"/>
	</g>
</g>
<g id="vectores">
</g>
</svg>
