<?xml version="1.0" encoding="utf-8"?>
<!-- Generator: Adobe Illustrator 25.0.1, SVG Export Plug-In . SVG Version: 6.00 Build 0)  -->
<svg version="1.1" id="Capa_1" xmlns="http://www.w3.org/2000/svg" xmlns:xlink="http://www.w3.org/1999/xlink" x="0px" y="0px"
	 viewBox="0 0 500 500" style="enable-background:new 0 0 500 500;" xml:space="preserve">
<style type="text/css">
	.st0{fill:#FFFFFF;stroke:#62C3BB;stroke-width:6;stroke-miterlimit:10;}
	.st1{fill:#76C4BE;}
	.st2{fill:#3D67C5;}
	.st3{fill:#4D3BC7;}
	.st4{fill:#2C2172;}
	.st5{fill:#EAB655;}
	.st6{fill:#7061C8;}
	.st7{fill:#64C0B9;}
</style>
<g>
	<g id="referencias">
		<g>
			<circle class="st0" cx="250" cy="250" r="202.1"/>
			<path class="st1" d="M197.5,182.8c-5.1,0-9.5,5.6-9.5,12.1c0,7.2,5,12.2,9.5,12.2h4.9v-7.8c0-2.3,1.9-4.2,4.2-4.2h22.8
				c2.3,0,4.2,1.9,4.2,4.2v7.8h87.7c-1.2-3.4-2-7.6-2-12.5c0-4.6,0.7-8.6,1.8-11.8H197.5z"/>
			<g>
				<g>
					<polygon class="st2" points="233.5,215.5 233.5,219.6 233.5,232.2 328.5,232.2 328.5,215.5 320.8,215.5 					"/>
				</g>
				<g>
					<path class="st2" d="M194.3,158.2c-19.4,0-31.3,21.2-31.3,37s9.3,37,31.3,37h8v-12.5v-4.2h-4.9c-0.5,0-0.9,0-1.4-0.1
						c-0.2,0-0.4,0-0.6-0.1l0,0l0,0l0,0l0,0h-0.1c0,0,0,0-0.1,0s-0.3,0-0.4-0.1c-0.1,0-0.2,0-0.3,0h-0.1l0,0c0,0,0,0-0.1,0l0,0
						c-0.1,0-0.2,0-0.3-0.1l0,0h-0.1l0,0l0,0c-0.1,0-0.1,0-0.2-0.1c-0.1,0-0.2,0-0.2-0.1c-0.1,0-0.1,0-0.2,0c-0.1,0-0.3-0.1-0.4-0.1
						c0,0,0,0-0.1,0s-0.1,0-0.2-0.1c-0.1,0-0.1,0-0.2-0.1c-0.1-0.1-0.3-0.1-0.4-0.2c-0.1,0-0.2-0.1-0.3-0.1
						c-0.2-0.1-0.4-0.1-0.5-0.2c-0.1,0-0.1-0.1-0.2-0.1c-0.1-0.1-0.3-0.1-0.4-0.2c-0.2-0.1-0.3-0.2-0.5-0.3
						c-0.1-0.1-0.2-0.1-0.3-0.2l0,0c-0.1,0-0.1-0.1-0.2-0.1c-0.2-0.1-0.3-0.2-0.5-0.3c-0.1-0.1-0.2-0.2-0.4-0.2l0,0
						c-0.1-0.1-0.2-0.1-0.3-0.2c0,0-0.1,0-0.1-0.1c-0.2-0.1-0.4-0.3-0.6-0.4c-0.1-0.1-0.2-0.2-0.4-0.3c-0.1-0.1-0.2-0.2-0.3-0.2
						c-0.1-0.1-0.1-0.1-0.2-0.2l0,0c-0.1-0.1-0.1-0.1-0.2-0.2c-0.1,0-0.1-0.1-0.2-0.1c-0.1-0.1-0.2-0.1-0.2-0.2
						c-0.1-0.1-0.1-0.1-0.2-0.2c-0.1-0.1-0.1-0.1-0.2-0.2c-0.1-0.1-0.2-0.2-0.3-0.3c-0.3-0.3-0.6-0.7-1-1.1l-0.1-0.1
						c-0.1-0.1-0.2-0.2-0.3-0.3s-0.2-0.2-0.3-0.3l-0.1-0.1l0,0c0,0,0,0-0.1-0.1c0-0.1-0.1-0.1-0.1-0.2c-0.1-0.1-0.1-0.1-0.2-0.2
						c-0.3-0.4-0.5-0.8-0.7-1.1c-0.1-0.2-0.3-0.5-0.4-0.7c-0.1-0.2-0.2-0.3-0.3-0.5c0-0.1-0.1-0.1-0.1-0.2c-0.1-0.3-0.3-0.5-0.4-0.8
						c-0.1-0.2-0.2-0.4-0.2-0.6c-0.1-0.3-0.3-0.6-0.4-0.9c0,0,0,0,0-0.1c-0.1-0.2-0.2-0.5-0.3-0.8l0,0l0,0c0-0.1-0.1-0.3-0.1-0.4
						c0-0.1,0-0.1-0.1-0.2v-0.1v-0.1c0,0,0,0,0-0.1V201v-0.1c0-0.1,0-0.2-0.1-0.3c0,0,0,0,0-0.1l0,0c-0.1-0.6-0.3-1.2-0.4-1.8
						c0-0.3-0.1-0.6-0.1-0.9c0-0.2-0.1-0.5-0.1-0.7c0-0.3-0.1-0.7-0.1-1c0-0.4,0-0.7,0-1.1s0-0.7,0-1.1c0-0.3,0-0.7,0.1-1
						c0-0.2,0-0.5,0.1-0.7c0-0.3,0.1-0.6,0.1-0.8c0.2-1.1,0.4-2.2,0.8-3.3V188c0.1-0.2,0.1-0.3,0.2-0.5c0-0.1,0.1-0.2,0.1-0.2
						c0.1-0.3,0.2-0.5,0.3-0.8c0.1-0.2,0.1-0.3,0.2-0.5c0-0.1,0.1-0.1,0.1-0.2l0,0v-0.1c0.1-0.1,0.1-0.3,0.2-0.4
						c0-0.1,0.1-0.1,0.1-0.2c0-0.1,0.1-0.2,0.1-0.3c0,0,0-0.1,0.1-0.1c0.1-0.1,0.1-0.2,0.2-0.4c0.1-0.1,0.1-0.2,0.2-0.3l0,0
						c0.1-0.1,0.2-0.3,0.2-0.4l0,0c0.1-0.1,0.1-0.2,0.2-0.3c0.1-0.1,0.2-0.3,0.2-0.4c0.1-0.2,0.2-0.4,0.4-0.6
						c0.1-0.1,0.1-0.2,0.2-0.2c0.3-0.4,0.5-0.7,0.8-1l0.1-0.1c0,0,0-0.1,0.1-0.1c0.3-0.4,0.6-0.7,0.9-1c0.1-0.1,0.2-0.2,0.3-0.3
						c0.4-0.4,0.8-0.7,1.2-1.1l0.1-0.1c0.1-0.1,0.2-0.2,0.3-0.2c0.1-0.1,0.2-0.2,0.4-0.3c0.1-0.1,0.2-0.1,0.2-0.2
						c0.1-0.1,0.2-0.1,0.3-0.2c0.2-0.1,0.4-0.3,0.6-0.4c0,0,0.1,0,0.1-0.1c0.1-0.1,0.2-0.1,0.3-0.2c0.1-0.1,0.2-0.1,0.3-0.2
						c0.1-0.1,0.2-0.1,0.3-0.2c0.1-0.1,0.2-0.1,0.4-0.2h0.1c0,0,0.1,0,0.1-0.1c0.1-0.1,0.2-0.1,0.3-0.2c0.1,0,0.1-0.1,0.2-0.1l0,0
						l0,0c0.7-0.3,1.4-0.6,2.1-0.8h0.1c0.9-0.3,1.9-0.5,2.9-0.5c-0.3,0-0.6,0.1-0.9,0.1c0.1,0,0.1,0,0.2,0c0.3,0,0.5-0.1,0.8-0.1
						c0.5,0,0.9-0.1,1.4-0.1h123.3h7.7v-16.3H194.3V158.2z M195.5,215.3L195.5,215.3L195.5,215.3L195.5,215.3z"/>
				</g>
			</g>
			<path class="st3" d="M297.6,289.5h4.9c4.5,0,9.5-5,9.5-12.2c0-6.4-4.4-12.1-9.5-12.1H181c1.1,3.2,1.8,7.1,1.8,11.8
				c0,4.9-0.8,9.1-2,12.5h85.7v-7.8c0-2.3,1.9-4.2,4.2-4.2h22.8c2.3,0,4.2,1.9,4.2,4.2v7.8L297.6,289.5L297.6,289.5z"/>
			<g>
				<g>
					<polygon class="st4" points="170.5,297.8 170.5,314.5 266.5,314.5 266.5,302 266.5,297.8 178.2,297.8 					"/>
				</g>
				<g>
					<g>
						<path class="st4" d="M305.7,240.5h-72.2v7.8c0,1.7-1.1,3.3-2.7,3.9c-1.6,0.6-3.4,0.2-4.6-1.1l-8.3-9.1l-8.3,9.1
							c-0.8,0.9-1.9,1.4-3.1,1.4c-0.5,0-1-0.1-1.5-0.3c-1.6-0.6-2.7-2.2-2.7-3.9v-7.8h-31.9v16.3h7.7h124.3c0.2,0,0.5,0,0.7,0h0.1
							c0.2,0,0.4,0,0.6,0c0.3,0,0.5,0.1,0.7,0.1s0.5,0.1,0.7,0.1s0.4,0.1,0.7,0.1c0.2,0.1,0.4,0.1,0.6,0.2c0.1,0,0.1,0,0.2,0.1
							c-0.3-0.1-0.6-0.2-0.8-0.2c0.3,0.1,0.7,0.2,1,0.3c0.2,0.1,0.4,0.1,0.6,0.2c0.3,0.1,0.5,0.2,0.8,0.3h0.1c0,0,0,0,0.1,0
							c0.4,0.2,0.7,0.3,1.1,0.5c0,0,0,0,0.1,0c0.4,0.2,0.7,0.4,1,0.6h0.1l0,0c0.3,0.2,0.5,0.3,0.8,0.5c0.2,0.2,0.4,0.3,0.7,0.5
							c0.6,0.4,1.1,0.9,1.6,1.4c0.1,0.1,0.1,0.1,0.2,0.2c0.2,0.2,0.4,0.4,0.6,0.7c0.1,0.1,0.2,0.2,0.3,0.3c0,0,0,0,0.1,0.1
							c0.1,0.2,0.3,0.3,0.4,0.5c0.2,0.2,0.4,0.5,0.6,0.8c0.2,0.2,0.3,0.4,0.5,0.6c0,0.1,0.1,0.1,0.1,0.2c0.2,0.3,0.4,0.7,0.6,1
							c0,0.1,0.1,0.1,0.1,0.2c0.2,0.4,0.4,0.7,0.6,1.1c0,0,0,0.1,0.1,0.1c0.2,0.4,0.3,0.7,0.5,1.1c0,0.1,0.1,0.2,0.1,0.2l0,0
							c0.2,0.4,0.3,0.7,0.4,1.1c0,0.1,0,0.1,0.1,0.2c0.1,0.4,0.2,0.7,0.3,1.1c0,0,0,0,0,0.1v0.1v0.1c0,0.1,0,0.1,0.1,0.2
							c0.1,0.4,0.2,0.7,0.3,1.1c-0.1-0.3-0.1-0.6-0.2-0.9c0,0.1,0.1,0.2,0.1,0.3c0,0.2,0.1,0.4,0.1,0.6c0.1,0.3,0.1,0.6,0.1,0.8
							c0,0.3,0.1,0.6,0.1,0.8c0,0.2,0.1,0.5,0.1,0.7c0,0.3,0.1,0.7,0.1,1c0,0.4,0,0.7,0,1.1s0,0.7,0,1.1c0,0.3,0,0.6-0.1,0.9v0.1
							v0.1c0,0.1,0,0.2,0,0.3c0,0.1,0,0.2,0,0.2v0.1c0,0.3-0.1,0.5-0.1,0.8s-0.1,0.6-0.1,0.8c-1.6,7.9-7.1,14.1-13.9,15.7
							c-0.2,0.1-0.4,0.1-0.7,0.1c-0.2,0-0.5,0.1-0.7,0.1s-0.5,0.1-0.7,0.1s-0.5,0-0.7,0s-0.5,0-0.7,0h-4.9v4.2v12.5h8
							c21.9,0,31.3-21.2,31.3-37C336.9,261.7,325,240.5,305.7,240.5z M319.4,270.6L319.4,270.6L319.4,270.6L319.4,270.6z"/>
					</g>
				</g>
			</g>
			<path class="st5" d="M274.9,289.5v4.2v4.2v4.2v12.5v4.2v1.1l1-1.1l3.1-3.4c0.3-0.3,0.6-0.6,0.9-0.8c0.6-0.4,1.4-0.6,2.1-0.6
				c0.8,0,1.5,0.2,2.2,0.6c0.3,0.2,0.7,0.5,0.9,0.8l3.1,3.4l1,1.1v-1.1v-4.2V302v-4.2v-4.2v-4.2v-3.6h-14.4L274.9,289.5L274.9,289.5
				z"/>
			<path class="st6" d="M210.7,211.3v4.2v4.2v12.5v4.2v1.1l1-1.1l3.1-3.4c0.3-0.3,0.6-0.6,0.9-0.8c0.6-0.4,1.4-0.6,2.1-0.6
				c0.8,0,1.5,0.2,2.1,0.6c0.3,0.2,0.7,0.5,0.9,0.8l3.1,3.4l1,1.1v-1.1v-4.2v-12.5v-4.2v-4.2v-4.2v-3.6h-14.4v3.6v4.2H210.7z"/>
		</g>
	</g>
	<g id="vectores">
	</g>
</g>
<g>
	<path class="st7" d="M199.2,380.2h9v5.3h-15.8v-28.1h6.8V380.2z"/>
	<path class="st7" d="M219.9,357.4v28.1h-6.8v-28.1H219.9z"/>
	<path class="st7" d="M247.4,373.5c1,1.3,1.5,2.7,1.5,4.3c0,2.3-0.8,4.2-2.5,5.6c-1.6,1.4-3.9,2.1-6.9,2.1h-13.1v-28.1h12.6
		c2.9,0,5.1,0.7,6.7,2c1.6,1.3,2.4,3.1,2.4,5.3c0,1.7-0.4,3-1.3,4.1c-0.9,1.1-2,1.9-3.5,2.3C245.1,371.4,246.4,372.2,247.4,373.5z
		 M233.3,368.8h4.5c1.1,0,2-0.2,2.6-0.7c0.6-0.5,0.9-1.2,0.9-2.2s-0.3-1.7-0.9-2.2s-1.5-0.8-2.6-0.8h-4.5V368.8z M241,379.2
		c0.6-0.5,0.9-1.3,0.9-2.3s-0.3-1.8-1-2.3c-0.7-0.6-1.6-0.8-2.7-0.8h-5v6.2h5C239.5,380,240.4,379.7,241,379.2z"/>
	<path class="st7" d="M268.8,385.5l-5.8-10.6h-1.6v10.6h-6.8v-28.1h11.5c2.2,0,4.1,0.4,5.7,1.2c1.6,0.8,2.7,1.8,3.5,3.2
		c0.8,1.3,1.2,2.8,1.2,4.5c0,1.9-0.5,3.5-1.6,5c-1.1,1.5-2.6,2.5-4.7,3.1l6.5,11.1H268.8z M261.3,370h4.2c1.3,0,2.2-0.3,2.8-0.9
		c0.6-0.6,0.9-1.5,0.9-2.6c0-1.1-0.3-1.9-0.9-2.5c-0.6-0.6-1.6-0.9-2.8-0.9h-4.2V370z"/>
	<path class="st7" d="M288.1,383.9c-2.2-1.2-3.9-2.9-5.2-5.1c-1.3-2.2-1.9-4.7-1.9-7.4c0-2.7,0.6-5.2,1.9-7.4c1.3-2.2,3-3.9,5.2-5.1
		c2.2-1.2,4.6-1.8,7.3-1.8c2.6,0,5.1,0.6,7.3,1.8s3.9,2.9,5.2,5.1c1.3,2.2,1.9,4.7,1.9,7.4c0,2.7-0.6,5.2-1.9,7.4
		c-1.3,2.2-3,3.9-5.2,5.1s-4.6,1.8-7.2,1.8C292.8,385.8,290.3,385.1,288.1,383.9z M300.8,377.3c1.3-1.5,2-3.5,2-5.9
		c0-2.5-0.7-4.5-2-5.9c-1.3-1.5-3.1-2.2-5.4-2.2c-2.3,0-4.1,0.7-5.4,2.2c-1.3,1.5-2,3.5-2,6c0,2.5,0.7,4.5,2,5.9
		c1.3,1.5,3.2,2.2,5.4,2.2C297.6,379.5,299.4,378.8,300.8,377.3z"/>
</g>
</svg>
