<?xml version="1.0" encoding="utf-8"?>
<!-- Generator: Adobe Illustrator 25.0.1, SVG Export Plug-In . SVG Version: 6.00 Build 0)  -->
<svg version="1.1" id="Capa_1" xmlns="http://www.w3.org/2000/svg" xmlns:xlink="http://www.w3.org/1999/xlink" x="0px" y="0px"
	 viewBox="0 0 500 500" style="enable-background:new 0 0 500 500;" xml:space="preserve">
<style type="text/css">
	.st0{fill:#FFFFFF;stroke:#62C3BB;stroke-width:6;stroke-miterlimit:10;}
	.st1{fill:#100662;}
	.st2{fill:#052260;}
	.st3{fill:#EAB655;}
	.st4{fill:#7061C8;}
	.st5{fill:#62C3BB;}
</style>
<g>
	<g id="referencias">
		<g>
			<circle class="st0" cx="250" cy="250" r="202.1"/>
			<g>
				<path class="st1" d="M148.9,150.8c-17.5,17.5-27.1,40.7-27.1,65.4s9.6,47.9,27.1,65.4s40.7,27.1,65.4,27.1
					c22.2,0,43.1-7.8,59.8-22l15,15c-1.3,5-0.1,10.6,3.8,14.5l56.7,56.7c5.9,5.9,15.4,5.9,21.3,0s5.9-15.4,0-21.3l-56.7-56.7
					c-3.9-3.9-9.5-5.1-14.5-3.8l-15-15c14.2-16.7,22-37.6,22-59.8c0-24.7-9.6-47.9-27.1-65.4C243.6,114.7,184.9,114.7,148.9,150.8z
					 M262.3,168.1c12.8,12.8,19.9,29.9,19.9,48.1s-7.1,35.2-19.9,48.1c-12.8,12.8-29.9,19.9-48.1,19.9s-35.2-7.1-48.1-19.9
					c-12.8-12.8-19.9-29.9-19.9-48.1s7.1-35.2,19.9-48.1C192.7,141.6,235.8,141.6,262.3,168.1z"/>
			</g>
			<g>
				<g>
					<path class="st2" d="M235.5,245.3c-1,0-2-0.3-2.8-1l-38.3-31.1L179.5,240c-1.2,2.2-3.9,3-6.1,1.7c-2.2-1.2-3-3.9-1.7-6.1
						l17.5-31.5c0.6-1.2,1.8-2,3.1-2.2s2.7,0.1,3.7,0.9l36.6,29.7l9.2-51c0.4-2.4,2.8-4.1,5.2-3.6c2.4,0.4,4.1,2.8,3.6,5.2
						L240,241.6c-0.3,1.6-1.4,2.9-2.9,3.4C236.6,245.2,236.1,245.3,235.5,245.3z"/>
				</g>
				<circle class="st3" cx="175.5" cy="237.8" r="14"/>
				<circle class="st4" cx="235.5" cy="240.8" r="14"/>
				<circle class="st5" cx="245.5" cy="183.8" r="14"/>
			</g>
		</g>
	</g>
	<g id="vectores">
	</g>
</g>
</svg>
