<?xml version="1.0" encoding="utf-8"?>
<!-- Generator: Adobe Illustrator 25.4.1, SVG Export Plug-In . SVG Version: 6.00 Build 0)  -->
<svg version="1.1" xmlns="http://www.w3.org/2000/svg" xmlns:xlink="http://www.w3.org/1999/xlink" x="0px" y="0px"
	 viewBox="0 0 500 500" style="enable-background:new 0 0 500 500;" xml:space="preserve">
<style type="text/css">
	.st0{fill:#62C3BB;}
	.st1{fill:#336964;}
	.st2{fill:#3C8B83;}
	.st3{fill:#76C4BE;}
	.st4{fill:#255B55;}
	.st5{fill:none;stroke:#62C3BB;stroke-width:6;stroke-miterlimit:10;}
	.st6{fill:#EAB655;}
	.st7{fill:#6382C7;}
	.st8{fill:#FFFFFF;}
	.st9{fill:#3D67C5;}
	.st10{fill:#4D3BC7;}
	.st11{fill:#2C2172;}
	.st12{fill:#7061C8;}
	.st13{fill:#ECC57A;}
	.st14{fill:#100662;}
	.st15{fill:#052260;}
	.st16{fill:#0B3594;}
	.st17{fill:#233B70;}
	.st18{fill:none;stroke:#052260;stroke-width:6;stroke-miterlimit:10;}
	.st19{fill:#A6823C;}
	.st20{fill:#8E641F;}
	.st21{fill:none;stroke:#EAB655;stroke-width:6;stroke-miterlimit:10;}
	.st22{fill:#190F97;}
	.st23{fill:none;stroke:#4D3BC7;stroke-width:6;stroke-miterlimit:10;}
</style>
<g id="referencias">
	<g>
		<g>
			<path class="st0" d="M250,3.8v26.7c-97.5,0-180.2,63.6-208.8,151.6l-25.5-8.3c11.8-36.5,32.2-70,60.2-98
				C122.4,29.4,184.2,3.8,250,3.8z"/>
			<path class="st1" d="M121,427.6l-15.7,21.6c-10.3-7.5-20.2-15.9-29.4-25.1C29.4,377.6,3.8,315.8,3.8,250
				c0-26.2,4.1-51.9,11.9-76.1l25.5,8.3c-6.9,21.4-10.7,44.2-10.7,67.9C30.5,323,66.2,387.7,121,427.6z"/>
			<path class="st2" d="M394.8,449.2c-41.8,30.5-92,47-144.8,47c-52.7,0-102.9-16.5-144.7-47l15.7-21.6
				c36.2,26.4,80.8,41.9,129,41.9s92.8-15.5,129-41.9L394.8,449.2z"/>
			<path class="st3" d="M496.2,250c0,65.8-25.6,127.6-72.1,174.1c-9.2,9.2-19,17.6-29.4,25.1L379,427.6
				c54.8-39.9,90.5-104.6,90.5-177.6c0-23.7-3.8-46.5-10.7-67.9l25.5-8.3C492.1,198.1,496.2,223.8,496.2,250z"/>
			<path class="st4" d="M484.3,173.9l-25.5,8.3C430.2,94.1,347.5,30.5,250,30.5V3.8c65.8,0,127.6,25.6,174.1,72.1
				C452,103.8,472.5,137.3,484.3,173.9z"/>
		</g>
		<circle class="st0" cx="250" cy="250" r="202.1"/>
		<path class="st8" d="M372,348.4l-56.7-56.7c-3.9-3.9-9.5-5.1-14.5-3.8l-15-15c14.2-16.7,22-37.6,22-59.8
			c0-24.7-9.6-47.9-27.1-65.4c-36.1-36-94.7-36.1-130.8,0c-17.5,17.5-27.1,40.7-27.1,65.4c0,24.7,9.6,47.9,27.1,65.4
			c17.5,17.5,40.7,27.1,65.4,27.1c22.2,0,43.1-7.8,59.8-22l15,15c-1.3,5-0.1,10.6,3.8,14.5l56.7,56.7c5.9,5.9,15.4,5.9,21.3,0
			C377.9,363.9,377.9,354.3,372,348.4z M263.5,261.2c-12.8,12.8-29.9,19.9-48.1,19.9c-18.2,0-35.2-7.1-48.1-19.9
			s-19.9-29.9-19.9-48.1c0-18.2,7.1-35.2,19.9-48.1c26.5-26.5,69.6-26.5,96.1,0c12.8,12.8,19.9,29.9,19.9,48.1
			C283.4,231.3,276.3,248.3,263.5,261.2z"/>
		<path class="st8" d="M246.7,166.7c-7.7,0-14,6.3-14,14c0,5.4,3,10,7.4,12.4l-5.5,30.8c-1.9,0.3-3.8,1-5.4,2L197,199.7
			c-1-0.8-2.4-1.2-3.7-0.9c-1.3,0.3-2.4,1.1-3.1,2.2l-11.1,19.9c-0.8-0.1-1.6-0.2-2.5-0.2c-7.7,0-14,6.3-14,14s6.3,14,14,14
			s14-6.3,14-14c0-3.6-1.4-6.9-3.6-9.4l8.5-15.2l28.1,22.8c-0.6,1.5-0.9,3.1-0.9,4.9c0,7.7,6.3,14,14,14s14-6.3,14-14
			c0-5.3-2.9-9.9-7.2-12.3l5.6-31c6.6-1.1,11.7-6.9,11.7-13.8C260.7,172.9,254.4,166.7,246.7,166.7z"/>
	</g>
</g>
<g id="vectores">
</g>
</svg>
