<?xml version="1.0" encoding="utf-8"?>
<!-- Generator: Adobe Illustrator 25.4.1, SVG Export Plug-In . SVG Version: 6.00 Build 0)  -->
<svg version="1.1" xmlns="http://www.w3.org/2000/svg" xmlns:xlink="http://www.w3.org/1999/xlink" x="0px" y="0px"
	 viewBox="0 0 500 500" style="enable-background:new 0 0 500 500;" xml:space="preserve">
<style type="text/css">
	.st0{fill:#62C3BB;}
	.st1{fill:#336964;}
	.st2{fill:#3C8B83;}
	.st3{fill:#76C4BE;}
	.st4{fill:#255B55;}
	.st5{fill:none;stroke:#62C3BB;stroke-width:6;stroke-miterlimit:10;}
	.st6{fill:#EAB655;}
	.st7{fill:#6382C7;}
	.st8{fill:#FFFFFF;}
	.st9{fill:#3D67C5;}
	.st10{fill:#4D3BC7;}
	.st11{fill:#2C2172;}
	.st12{fill:#7061C8;}
	.st13{fill:#ECC57A;}
	.st14{fill:#100662;}
	.st15{fill:#052260;}
	.st16{fill:#0B3594;}
	.st17{fill:#233B70;}
	.st18{fill:none;stroke:#052260;stroke-width:6;stroke-miterlimit:10;}
	.st19{fill:#A6823C;}
	.st20{fill:#8E641F;}
	.st21{fill:none;stroke:#EAB655;stroke-width:6;stroke-miterlimit:10;}
	.st22{fill:#190F97;}
	.st23{fill:none;stroke:#4D3BC7;stroke-width:6;stroke-miterlimit:10;}
</style>
<g id="referencias">
	<g>
		<g>
			<path class="st0" d="M250,3.8v26.7c-97.5,0-180.2,63.6-208.8,151.6l-25.5-8.3c11.8-36.5,32.2-70,60.2-98
				C122.4,29.4,184.2,3.8,250,3.8z"/>
			<path class="st1" d="M121,427.6l-15.7,21.6c-10.3-7.5-20.2-15.9-29.4-25.1C29.4,377.6,3.8,315.8,3.8,250
				c0-26.2,4.1-51.9,11.9-76.1l25.5,8.3c-6.9,21.4-10.7,44.2-10.7,67.9C30.5,323,66.2,387.7,121,427.6z"/>
			<path class="st2" d="M394.8,449.2c-41.8,30.5-92,47-144.8,47c-52.7,0-102.9-16.5-144.7-47l15.7-21.6
				c36.2,26.4,80.8,41.9,129,41.9s92.8-15.5,129-41.9L394.8,449.2z"/>
			<path class="st3" d="M496.2,250c0,65.8-25.6,127.6-72.1,174.1c-9.2,9.2-19,17.6-29.4,25.1L379,427.6
				c54.8-39.9,90.5-104.6,90.5-177.6c0-23.7-3.8-46.5-10.7-67.9l25.5-8.3C492.1,198.1,496.2,223.8,496.2,250z"/>
			<path class="st4" d="M484.3,173.9l-25.5,8.3C430.2,94.1,347.5,30.5,250,30.5V3.8c65.8,0,127.6,25.6,174.1,72.1
				C452,103.8,472.5,137.3,484.3,173.9z"/>
		</g>
		<circle class="st0" cx="250" cy="250" r="202.1"/>
		<path class="st8" d="M323.2,371h-16.8c-1.9,0-3.4-1.8-2.9-3.7l6-19.1c0.3-1.3,1.5-2.2,2.9-2.2h4.4c1.3,0,2.5,0.9,2.9,2.2l6.4,19.1
			C326.6,369.1,325.2,371,323.2,371z"/>
		<circle class="st8" cx="314.9" cy="328.5" r="9"/>
		<path class="st8" d="M330,244.6v39.7c-0.5,1.8-3.2,9.5-12.1,17.5v-51.5L330,244.6z"/>
		<path class="st8" d="M308.9,254.5v53.9c-11.9,7.1-30.2,13-58.4,13c-20.4,0-48.4-3.3-66.6-18.9c-9.5-8.1-12.3-16.3-12.9-18.2v-39.4
			l75.2,35c1.4,0.6,2.8,1,4.3,1c1.5,0,2.9-0.3,4.3-1L308.9,254.5z"/>
		<path class="st8" d="M366.3,216.9c0,0.3-0.1,0.8-0.7,1.1l-52.6,24.6l-60.6-29.7c-2.2-1.1-4.9-0.2-6,2.1c-1.1,2.2-0.2,4.9,2.1,6
			l54.2,26.5l-51.7,24.2c-0.3,0.2-0.7,0.2-1,0l-115.6-53.8c-0.6-0.3-0.7-0.7-0.7-1.1s0.1-0.8,0.7-1.1l115.6-54.7
			c0.2-0.1,0.3-0.1,0.5-0.1c0.2,0,0.4,0,0.5,0.1l114.7,54.7C366.2,216.1,366.4,216.5,366.3,216.9z"/>
	</g>
</g>
<g id="vectores">
</g>
</svg>
