<?xml version="1.0" encoding="utf-8"?>
<!-- Generator: Adobe Illustrator 25.4.1, SVG Export Plug-In . SVG Version: 6.00 Build 0)  -->
<svg version="1.1" xmlns="http://www.w3.org/2000/svg" xmlns:xlink="http://www.w3.org/1999/xlink" x="0px" y="0px"
	 viewBox="0 0 500 500" style="enable-background:new 0 0 500 500;" xml:space="preserve">
<style type="text/css">
	.st0{fill:#62C3BB;}
	.st1{fill:#336964;}
	.st2{fill:#3C8B83;}
	.st3{fill:#76C4BE;}
	.st4{fill:#255B55;}
	.st5{fill:none;stroke:#62C3BB;stroke-width:6;stroke-miterlimit:10;}
	.st6{fill:#EAB655;}
	.st7{fill:#6382C7;}
	.st8{fill:#FFFFFF;}
	.st9{fill:#3D67C5;}
	.st10{fill:#4D3BC7;}
	.st11{fill:#2C2172;}
	.st12{fill:#7061C8;}
	.st13{fill:#ECC57A;}
	.st14{fill:#100662;}
	.st15{fill:#052260;}
	.st16{fill:#0B3594;}
	.st17{fill:#233B70;}
	.st18{fill:none;stroke:#052260;stroke-width:6;stroke-miterlimit:10;}
	.st19{fill:#A6823C;}
	.st20{fill:#8E641F;}
	.st21{fill:none;stroke:#EAB655;stroke-width:6;stroke-miterlimit:10;}
	.st22{fill:#190F97;}
	.st23{fill:none;stroke:#4D3BC7;stroke-width:6;stroke-miterlimit:10;}
</style>
<g id="referencias">
	<g>
		<g>
			<path class="st0" d="M250,3.8v26.7c-97.5,0-180.2,63.6-208.8,151.6l-25.5-8.3c11.8-36.5,32.2-70,60.2-98
				C122.4,29.4,184.2,3.8,250,3.8z"/>
			<path class="st1" d="M121,427.6l-15.7,21.6c-10.3-7.5-20.2-15.9-29.4-25.1C29.4,377.6,3.8,315.8,3.8,250
				c0-26.2,4.1-51.9,11.9-76.1l25.5,8.3c-6.9,21.4-10.7,44.2-10.7,67.9C30.5,323,66.2,387.7,121,427.6z"/>
			<path class="st2" d="M394.8,449.2c-41.8,30.5-92,47-144.8,47c-52.7,0-102.9-16.5-144.7-47l15.7-21.6
				c36.2,26.4,80.8,41.9,129,41.9s92.8-15.5,129-41.9L394.8,449.2z"/>
			<path class="st3" d="M496.2,250c0,65.8-25.6,127.6-72.1,174.1c-9.2,9.2-19,17.6-29.4,25.1L379,427.6
				c54.8-39.9,90.5-104.6,90.5-177.6c0-23.7-3.8-46.5-10.7-67.9l25.5-8.3C492.1,198.1,496.2,223.8,496.2,250z"/>
			<path class="st4" d="M484.3,173.9l-25.5,8.3C430.2,94.1,347.5,30.5,250,30.5V3.8c65.8,0,127.6,25.6,174.1,72.1
				C452,103.8,472.5,137.3,484.3,173.9z"/>
		</g>
		<circle class="st0" cx="250" cy="250" r="202.1"/>
		<g>
			<path class="st8" d="M339.3,240.2h-74.4c-2.5,0-4.5-2-4.5-4.5v-82.6c0-0.7-0.4-1-0.7-1.2s-0.8-0.4-1.4-0.1l-98.3,50
				c-0.5,0.2-0.8,0.7-0.8,1.2v145.1h101.1v-42.1c0-2.5,2-4.5,4.5-4.5h40c2.5,0,4.5,2,4.5,4.5v42.1h31.3V241.6
				C340.7,240.9,340.1,240.2,339.3,240.2z M202.3,328c0,2.5-2,4.5-4.5,4.5h-21.5c-2.5,0-4.5-2-4.5-4.5v-21.4c0-2.5,2-4.5,4.5-4.5
				h21.5c2.5,0,4.5,2,4.5,4.5V328z M202.3,283.4c0,2.5-2,4.5-4.5,4.5h-21.5c-2.5,0-4.5-2-4.5-4.5V262c0-2.5,2-4.5,4.5-4.5h21.5
				c2.5,0,4.5,2,4.5,4.5V283.4z M202.3,238.8c0,2.5-2,4.5-4.5,4.5h-21.5c-2.5,0-4.5-2-4.5-4.5v-21.4c0-2.5,2-4.5,4.5-4.5h21.5
				c2.5,0,4.5,2,4.5,4.5V238.8z M247.8,328c0,2.5-2,4.5-4.5,4.5h-21.5c-2.5,0-4.5-2-4.5-4.5v-21.4c0-2.5,2-4.5,4.5-4.5h21.5
				c2.5,0,4.5,2,4.5,4.5V328z M247.8,283.4c0,2.5-2,4.5-4.5,4.5h-21.5c-2.5,0-4.5-2-4.5-4.5V262c0-2.5,2-4.5,4.5-4.5h21.5
				c2.5,0,4.5,2,4.5,4.5V283.4z M247.8,238.8c0,2.5-2,4.5-4.5,4.5h-21.5c-2.5,0-4.5-2-4.5-4.5v-21.4c0-2.5,2-4.5,4.5-4.5h21.5
				c2.5,0,4.5,2,4.5,4.5V238.8z M326.3,283.5c0,2.5-2,4.5-4.5,4.5h-56.9c-2.5,0-4.5-2-4.5-4.5v-23c0-2.5,2-4.5,4.5-4.5h56.9
				c2.5,0,4.5,2,4.5,4.5V283.5z"/>
		</g>
		<g>
			<rect x="180.9" y="221.9" class="st8" width="12.5" height="12.4"/>
		</g>
		<g>
			<rect x="226.3" y="221.9" class="st8" width="12.5" height="12.4"/>
		</g>
		<g>
			<rect x="269.4" y="265" class="st8" width="47.9" height="14"/>
		</g>
		<g>
			<rect x="180.9" y="266.5" class="st8" width="12.5" height="12.4"/>
		</g>
		<g>
			<rect x="226.3" y="266.5" class="st8" width="12.5" height="12.4"/>
		</g>
		<g>
			<rect x="180.9" y="311.1" class="st8" width="12.5" height="12.4"/>
		</g>
		<g>
			<rect x="226.3" y="311.1" class="st8" width="12.5" height="12.4"/>
		</g>
	</g>
</g>
<g id="vectores">
</g>
</svg>
