<?xml version="1.0" encoding="utf-8"?>
<!-- Generator: Adobe Illustrator 25.0.1, SVG Export Plug-In . SVG Version: 6.00 Build 0)  -->
<svg version="1.1" id="Capa_1" xmlns="http://www.w3.org/2000/svg" xmlns:xlink="http://www.w3.org/1999/xlink" x="0px" y="0px"
	 viewBox="0 0 500 500" style="enable-background:new 0 0 500 500;" xml:space="preserve">
<style type="text/css">
	.st0{fill:#FFFFFF;stroke:#62C3BB;stroke-width:6;stroke-miterlimit:10;}
	.st1{fill:#233B70;}
	.st2{fill:#62C3BB;}
	.st3{fill:#ECC57A;}
	.st4{fill:#6382C7;}
	.st5{fill:#3D67C5;}
</style>
<g>
	<g id="referencias">
		<g>
			<circle class="st0" cx="250" cy="250" r="202.1"/>
			<g>
				<path class="st1" d="M339.3,240.2h-74.4c-2.5,0-4.5-2-4.5-4.5v-82.6c0-0.7-0.4-1-0.7-1.2s-0.8-0.4-1.4-0.1l-98.3,50
					c-0.5,0.2-0.8,0.7-0.8,1.2v145.1h101.1V306c0-2.5,2-4.5,4.5-4.5h40c2.5,0,4.5,2,4.5,4.5v42.1h31.3V241.6
					C340.7,240.9,340.1,240.2,339.3,240.2z M202.3,328c0,2.5-2,4.5-4.5,4.5h-21.5c-2.5,0-4.5-2-4.5-4.5v-21.4c0-2.5,2-4.5,4.5-4.5
					h21.5c2.5,0,4.5,2,4.5,4.5V328z M202.3,283.4c0,2.5-2,4.5-4.5,4.5h-21.5c-2.5,0-4.5-2-4.5-4.5V262c0-2.5,2-4.5,4.5-4.5h21.5
					c2.5,0,4.5,2,4.5,4.5V283.4z M202.3,238.8c0,2.5-2,4.5-4.5,4.5h-21.5c-2.5,0-4.5-2-4.5-4.5v-21.4c0-2.5,2-4.5,4.5-4.5h21.5
					c2.5,0,4.5,2,4.5,4.5V238.8z M247.8,328c0,2.5-2,4.5-4.5,4.5h-21.5c-2.5,0-4.5-2-4.5-4.5v-21.4c0-2.5,2-4.5,4.5-4.5h21.5
					c2.5,0,4.5,2,4.5,4.5V328z M247.8,283.4c0,2.5-2,4.5-4.5,4.5h-21.5c-2.5,0-4.5-2-4.5-4.5V262c0-2.5,2-4.5,4.5-4.5h21.5
					c2.5,0,4.5,2,4.5,4.5V283.4z M247.8,238.8c0,2.5-2,4.5-4.5,4.5h-21.5c-2.5,0-4.5-2-4.5-4.5v-21.4c0-2.5,2-4.5,4.5-4.5h21.5
					c2.5,0,4.5,2,4.5,4.5V238.8z M326.3,283.5c0,2.5-2,4.5-4.5,4.5h-56.9c-2.5,0-4.5-2-4.5-4.5v-23c0-2.5,2-4.5,4.5-4.5h56.9
					c2.5,0,4.5,2,4.5,4.5V283.5z"/>
			</g>
			<g>
				<rect x="180.9" y="221.9" class="st2" width="12.5" height="12.4"/>
			</g>
			<g>
				<rect x="226.3" y="221.9" class="st2" width="12.5" height="12.4"/>
			</g>
			<g>
				<rect x="269.4" y="265" class="st3" width="47.9" height="14"/>
			</g>
			<g>
				<rect x="180.9" y="266.5" class="st4" width="12.5" height="12.4"/>
			</g>
			<g>
				<rect x="226.3" y="266.5" class="st4" width="12.5" height="12.4"/>
			</g>
			<g>
				<rect x="180.9" y="311.1" class="st5" width="12.5" height="12.4"/>
			</g>
			<g>
				<rect x="226.3" y="311.1" class="st5" width="12.5" height="12.4"/>
			</g>
		</g>
	</g>
	<g id="vectores">
	</g>
</g>
</svg>
