<?xml version="1.0" encoding="utf-8"?>
<!-- Generator: Adobe Illustrator 25.0.1, SVG Export Plug-In . SVG Version: 6.00 Build 0)  -->
<svg version="1.1" id="referencias" xmlns="http://www.w3.org/2000/svg" xmlns:xlink="http://www.w3.org/1999/xlink" x="0px"
	 y="0px" viewBox="0 0 500 500" style="enable-background:new 0 0 500 500;" xml:space="preserve">
<style type="text/css">
	.st0{fill:#FFFFFF;stroke:#62C3BB;stroke-width:6;stroke-miterlimit:10;}
	.st1{fill:#233B70;}
	.st2{fill:#6382C7;}
	.st3{fill:#7061C8;}
	.st4{fill:#62C3BB;}
	.st5{fill:#EAB655;}
</style>
<g>
	<g>
		<circle class="st0" cx="250" cy="250" r="202.1"/>
		<g>
			<path class="st1" d="M263.5,329.5c-0.1,6.8-5.6,12.3-12.4,12.3c-6.8,0-12.3-5.5-12.4-12.3H263.5z"/>
			<path class="st1" d="M228.9,320.2c-17.5-1.8-34.7-2.8-50.5-2.8c-20.4,0-38.5,1.7-51.7,5.6l9.7-20.7c15,0.4,33.2,0.4,50.1,2.5
				c12.2,1.5,23.8,4.2,32.9,8.9c0,0,0,0,0.1,0C223,315.5,226.2,317.7,228.9,320.2z"/>
			<path class="st2" d="M242.8,317.1c-0.8-0.7-3.2-2.8-3.6-3c-4.2-3.1-9.5-6-15.7-8.5c-9.7-4-21.7-7.3-35.6-9.8l0,0
				c-17-3-37-4.9-59.5-5.3c-0.3-0.1-0.6-0.1-0.9-0.1c-0.2,0-0.5,0-0.7,0.1c-1.1,0-2.3,0-3.4-0.1l18.9-37.7
				c5.3,0.1,10.5,0.3,15.6,0.7c-0.1,0.9-0.2,1.7-0.3,2.6v0.4v5.4l3.9,2.7c9.1,6.3,19.3,10.4,30.1,12.2l2.2,1.5
				c14.4,10,31.1,15.7,48.7,16.7c0.2,0.9,0.4,1.8,0.4,2.7C242.6,298.3,242.8,316.9,242.8,317.1z"/>
			<path class="st1" d="M376.8,322.9c-13.2-3.9-31.3-5.6-51.7-5.6c-15.8,0-33,1-50.5,2.8c19.3-18,62.4-17.2,92.6-18L376.8,322.9z"/>
			<path class="st2" d="M374.7,290.4c-1.1,0-2.3,0-3.4,0.1c-0.2-0.1-0.5-0.1-0.7-0.1c-0.3,0-0.6,0-0.9,0.1
				c-52.7,1.1-92.1,9.8-110.9,23.7c-0.4,0.2-2.8,2.2-3.6,3c0-0.2,0.1-18.8,0.1-19.5c0-0.3,0.1-0.7,0.1-1l0,0l0,0
				c0-0.4,0.1-0.7,0.2-1c0.1-0.2,0.1-0.5,0.2-0.8c16.2-1.4,31.9-6.8,45.7-16c13.2-1,26-5.5,37.2-13.1l4-2.7v-5.5v-0.4
				c-0.1-1.3-0.3-2.5-0.5-3.7c1.1-0.1,2.3-0.2,3.4-0.2c0.5,0,0.9-0.1,1.4-0.1s0.9-0.1,1.4-0.1c0.8,0,1.7-0.1,2.5-0.1
				c0.5,0,1.1,0,1.6-0.1c0.4,0,0.8,0,1.2,0c0.8,0,1.5,0,2.3,0L374.7,290.4z"/>
			<g>
				<path class="st3" d="M217.7,225.5c-3.2,1.9-6.3,4.2-9.1,6.7c-8.1,7.3-13.9,16.6-16.9,26.9c-0.8,2.6-1.4,5.4-1.7,8.1
					c-8.7-1.9-16.7-5.4-23.6-10.2v-0.3c0.1-0.9,0.2-1.7,0.3-2.5c3-18,18.7-31.4,37.4-31.4C208.8,222.9,213.4,223.8,217.7,225.5z"/>
			</g>
			<g>
				<path class="st3" d="M218.8,204c-3.6,4.1-8.9,6.7-14.8,6.7c-11.1,0-20.1-8.9-20.1-20.1c0-10.9,8.9-19.8,20.1-19.8
					c3.7,0,7.2,1,10.2,2.9c-1,3.3-1.6,6.8-1.6,10.4C212.6,191.4,214.9,198.3,218.8,204z"/>
			</g>
			<g>
				<path class="st4" d="M333.7,257.9v0.3c-8.2,5.5-17.6,9.4-27.7,11c-0.3-3.2-0.9-6.3-1.8-9.3c-2.9-10.5-8.9-20.1-17.2-27.6
					c-2.2-2-4.5-3.8-7-5.4c4.8-2.1,10-3.3,15.6-3.3c18.2,0,34,12.9,37.6,30.5C333.3,255.3,333.5,256.6,333.7,257.9z"/>
			</g>
			<g>
				<path class="st4" d="M315.6,190.9c0,11.2-9.1,20.3-20,20.3c-7.4,0-13.8-3.9-17.4-9.8c2.9-5.1,4.6-11.1,4.6-17.4
					c0-2.7-0.3-5.4-0.9-7.9c3.6-3.3,8.4-5.3,13.7-5.3C306.5,170.9,315.6,179.9,315.6,190.9z"/>
			</g>
			<g>
				<path class="st5" d="M297.1,270.5v0.3c-1.8,1.2-3.7,2.4-5.6,3.5c-2.4,1.4-4.8,2.6-7.3,3.8c-7.5,3.4-15.5,5.8-23.8,7
					c-4.1,0.6-8.3,0.9-12.5,0.9c-3.4,0-6.7-0.2-10-0.6c-9.9-1.1-19.2-3.9-27.8-8c-2.7-1.3-5.3-2.7-7.8-4.3c-1.3-0.8-2.5-1.6-3.7-2.4
					v-0.3c0.1-0.6,0.1-1.3,0.2-1.9c0.3-2.3,0.8-4.6,1.4-6.8c4-13.9,13.9-25.2,26.8-31.1c1.5-0.7,3.1-1.3,4.7-1.9
					c1.7-0.6,3.4-1.1,5.2-1.5c3.5-0.8,7.1-1.2,10.9-1.2c4.9,0,9.7,0.7,14.2,2.1c1.6,0.5,3.2,1.1,4.8,1.7c1.5,0.6,3,1.3,4.5,2.1
					c11.7,6.3,20.7,17.2,24.3,30.4c0.6,2.4,1.1,4.9,1.4,7.4C297,270.1,297.1,270.3,297.1,270.5z"/>
			</g>
			<g>
				<path class="st5" d="M273.7,184.1c0,4.1-0.9,7.9-2.6,11.4c-0.9,1.9-2,3.6-3.3,5.2c-4.8,5.9-12,9.7-20,9.7
					c-6.9,0-13.2-2.7-17.9-7c-1.2-1.1-2.3-2.4-3.3-3.7c-1.2-1.7-2.3-3.6-3.1-5.6c-1.2-3.1-1.9-6.4-1.9-9.9c0-0.8,0-1.5,0.1-2.3
					c0.2-2.2,0.7-4.2,1.4-6.2c0.6-1.6,1.3-3.1,2.1-4.5c4.5-7.7,13-12.9,22.7-12.9c10.6,0,19.9,6.6,23.8,15.9
					c0.8,1.9,1.4,3.8,1.7,5.8C273.6,181.3,273.7,182.7,273.7,184.1z"/>
			</g>
		</g>
	</g>
</g>
</svg>
