<?xml version="1.0" encoding="utf-8"?>
<!-- Generator: Adobe Illustrator 25.0.1, SVG Export Plug-In . SVG Version: 6.00 Build 0)  -->
<svg version="1.1" id="referencias" xmlns="http://www.w3.org/2000/svg" xmlns:xlink="http://www.w3.org/1999/xlink" x="0px"
	 y="0px" viewBox="0 0 500 500" style="enable-background:new 0 0 500 500;" xml:space="preserve">
<style type="text/css">
	.st0{fill:#FFFFFF;stroke:#62C3BB;stroke-width:6;stroke-miterlimit:10;}
	.st1{fill:#233B70;}
	.st2{fill:#6382C7;}
	.st3{fill:#7061C8;}
	.st4{fill:#62C3BB;}
	.st5{fill:#EAB655;}
	.st6{fill:#64C0B9;}
</style>
<g>
	<g>
		<circle class="st0" cx="250" cy="250" r="202.1"/>
		<g>
			<path class="st1" d="M263.5,278.5c-0.1,6.8-5.6,12.3-12.4,12.3c-6.8,0-12.3-5.5-12.4-12.3H263.5z"/>
			<path class="st1" d="M228.9,269.2c-17.5-1.8-34.7-2.8-50.5-2.8c-20.4,0-38.5,1.7-51.7,5.6l9.7-20.7c15,0.4,33.2,0.4,50.1,2.5
				c12.2,1.5,23.8,4.2,32.9,8.9c0,0,0,0,0.1,0C223,264.5,226.2,266.7,228.9,269.2z"/>
			<path class="st2" d="M242.8,266.1c-0.8-0.7-3.2-2.8-3.6-3c-4.2-3.1-9.5-6-15.7-8.5c-9.7-4-21.7-7.3-35.6-9.8l0,0
				c-17-3-37-4.9-59.5-5.3c-0.3-0.1-0.6-0.1-0.9-0.1c-0.2,0-0.5,0-0.7,0.1c-1.1,0-2.3,0-3.4-0.1l18.9-37.7
				c5.3,0.1,10.5,0.3,15.6,0.7c-0.1,0.9-0.2,1.7-0.3,2.6v0.4v5.4l3.9,2.7c9.1,6.3,19.3,10.4,30.1,12.2l2.2,1.5
				c14.4,10,31.1,15.7,48.7,16.7c0.2,0.9,0.4,1.8,0.4,2.7C242.6,247.3,242.8,265.9,242.8,266.1z"/>
			<path class="st1" d="M376.8,271.9c-13.2-3.9-31.3-5.6-51.7-5.6c-15.8,0-33,1-50.5,2.8c19.3-18,62.4-17.2,92.6-18L376.8,271.9z"/>
			<path class="st2" d="M374.7,239.4c-1.1,0-2.3,0-3.4,0.1c-0.2-0.1-0.5-0.1-0.7-0.1c-0.3,0-0.6,0-0.9,0.1
				c-52.7,1.1-92.1,9.8-110.9,23.7c-0.4,0.2-2.8,2.2-3.6,3c0-0.2,0.1-18.8,0.1-19.5c0-0.3,0.1-0.7,0.1-1l0,0l0,0
				c0-0.4,0.1-0.7,0.2-1c0.1-0.2,0.1-0.5,0.2-0.8c16.2-1.4,31.9-6.8,45.7-16c13.2-1,26-5.5,37.2-13.1l4-2.7v-5.5v-0.4
				c-0.1-1.3-0.3-2.5-0.5-3.7c1.1-0.1,2.3-0.2,3.4-0.2c0.5,0,0.9-0.1,1.4-0.1s0.9-0.1,1.4-0.1c0.8,0,1.7-0.1,2.5-0.1
				c0.5,0,1.1,0,1.6-0.1c0.4,0,0.8,0,1.2,0c0.8,0,1.5,0,2.3,0L374.7,239.4z"/>
			<g>
				<path class="st3" d="M217.7,174.5c-3.2,1.9-6.3,4.2-9.1,6.7c-8.1,7.3-13.9,16.6-16.9,26.9c-0.8,2.6-1.4,5.4-1.7,8.1
					c-8.7-1.9-16.7-5.4-23.6-10.2v-0.3c0.1-0.9,0.2-1.7,0.3-2.5c3-18,18.7-31.4,37.4-31.4C208.8,171.9,213.4,172.8,217.7,174.5z"/>
			</g>
			<g>
				<path class="st3" d="M218.8,153c-3.6,4.1-8.9,6.7-14.8,6.7c-11.1,0-20.1-8.9-20.1-20.1c0-10.9,8.9-19.8,20.1-19.8
					c3.7,0,7.2,1,10.2,2.9c-1,3.3-1.6,6.8-1.6,10.4C212.6,140.4,214.9,147.3,218.8,153z"/>
			</g>
			<g>
				<path class="st4" d="M333.7,206.9v0.3c-8.2,5.5-17.6,9.4-27.7,11c-0.3-3.2-0.9-6.3-1.8-9.3c-2.9-10.5-8.9-20.1-17.2-27.6
					c-2.2-2-4.5-3.8-7-5.4c4.8-2.1,10-3.3,15.6-3.3c18.2,0,34,12.9,37.6,30.5C333.3,204.3,333.5,205.6,333.7,206.9z"/>
			</g>
			<g>
				<path class="st4" d="M315.6,139.9c0,11.2-9.1,20.3-20,20.3c-7.4,0-13.8-3.9-17.4-9.8c2.9-5.1,4.6-11.1,4.6-17.4
					c0-2.7-0.3-5.4-0.9-7.9c3.6-3.3,8.4-5.3,13.7-5.3C306.5,119.9,315.6,128.9,315.6,139.9z"/>
			</g>
			<g>
				<path class="st5" d="M297.1,219.5v0.3c-1.8,1.2-3.7,2.4-5.6,3.5c-2.4,1.4-4.8,2.6-7.3,3.8c-7.5,3.4-15.5,5.8-23.8,7
					c-4.1,0.6-8.3,0.9-12.5,0.9c-3.4,0-6.7-0.2-10-0.6c-9.9-1.1-19.2-3.9-27.8-8c-2.7-1.3-5.3-2.7-7.8-4.3c-1.3-0.8-2.5-1.6-3.7-2.4
					v-0.3c0.1-0.6,0.1-1.3,0.2-1.9c0.3-2.3,0.8-4.6,1.4-6.8c4-13.9,13.9-25.2,26.8-31.1c1.5-0.7,3.1-1.3,4.7-1.9
					c1.7-0.6,3.4-1.1,5.2-1.5c3.5-0.8,7.1-1.2,10.9-1.2c4.9,0,9.7,0.7,14.2,2.1c1.6,0.5,3.2,1.1,4.8,1.7c1.5,0.6,3,1.3,4.5,2.1
					c11.7,6.3,20.7,17.2,24.3,30.4c0.6,2.4,1.1,4.9,1.4,7.4C297,219.1,297.1,219.3,297.1,219.5z"/>
			</g>
			<g>
				<path class="st5" d="M273.7,133.1c0,4.1-0.9,7.9-2.6,11.4c-0.9,1.9-2,3.6-3.3,5.2c-4.8,5.9-12,9.7-20,9.7
					c-6.9,0-13.2-2.7-17.9-7c-1.2-1.1-2.3-2.4-3.3-3.7c-1.2-1.7-2.3-3.6-3.1-5.6c-1.2-3.1-1.9-6.4-1.9-9.9c0-0.8,0-1.5,0.1-2.3
					c0.2-2.2,0.7-4.2,1.4-6.2c0.6-1.6,1.3-3.1,2.1-4.5c4.5-7.7,13-12.9,22.7-12.9c10.6,0,19.9,6.6,23.8,15.9
					c0.8,1.9,1.4,3.8,1.7,5.8C273.6,130.3,273.7,131.7,273.7,133.1z"/>
			</g>
		</g>
	</g>
</g>
<g>
	<path class="st6" d="M141.7,327.9c-2.2-1.2-3.9-2.9-5.2-5.1s-1.9-4.7-1.9-7.4c0-2.7,0.6-5.2,1.9-7.4s3-3.9,5.2-5.1s4.6-1.8,7.3-1.8
		c2.6,0,5.1,0.6,7.3,1.8s3.9,2.9,5.2,5.1c1.3,2.2,1.9,4.7,1.9,7.4c0,2.7-0.6,5.2-1.9,7.4c-1.3,2.2-3,3.9-5.2,5.1
		c-2.2,1.2-4.6,1.8-7.2,1.8C146.3,329.8,143.9,329.1,141.7,327.9z M154.3,321.3c1.3-1.5,2-3.5,2-5.9c0-2.5-0.7-4.5-2-5.9
		c-1.3-1.5-3.1-2.2-5.4-2.2c-2.3,0-4.1,0.7-5.4,2.2c-1.3,1.5-2,3.5-2,6c0,2.5,0.7,4.5,2,5.9c1.3,1.5,3.2,2.2,5.4,2.2
		C151.2,323.5,153,322.8,154.3,321.3z"/>
	<path class="st6" d="M189.6,317.5c1,1.3,1.5,2.7,1.5,4.3c0,2.3-0.8,4.2-2.5,5.6c-1.6,1.4-3.9,2.1-6.9,2.1h-13.1v-28.1h12.6
		c2.9,0,5.1,0.7,6.7,2c1.6,1.3,2.4,3.1,2.4,5.3c0,1.7-0.4,3-1.3,4.1c-0.9,1.1-2,1.9-3.5,2.3C187.3,315.4,188.6,316.2,189.6,317.5z
		 M175.5,312.8h4.5c1.1,0,2-0.2,2.6-0.7c0.6-0.5,0.9-1.2,0.9-2.2s-0.3-1.7-0.9-2.2s-1.5-0.8-2.6-0.8h-4.5V312.8z M183.2,323.2
		c0.6-0.5,0.9-1.3,0.9-2.3s-0.3-1.8-1-2.3c-0.7-0.6-1.6-0.8-2.7-0.8h-5v6.2h5C181.7,324,182.6,323.7,183.2,323.2z"/>
	<path class="st6" d="M214.3,301.4v19.1c0,3-0.8,5.2-2.5,6.8c-1.7,1.6-3.9,2.4-6.7,2.4c-3,0-5.3-0.8-7.1-2.5
		c-1.8-1.7-2.7-4.1-2.7-7.2h6.8c0,1.2,0.2,2.1,0.7,2.7c0.5,0.6,1.2,0.9,2.1,0.9c0.8,0,1.5-0.3,1.9-0.8c0.5-0.5,0.7-1.3,0.7-2.3
		v-19.1H214.3z"/>
	<path class="st6" d="M228.2,306.9v5.7h9.2v5.3h-9.2v6.2h10.4v5.5h-17.2v-28.1h17.2v5.5H228.2z"/>
	<path class="st6" d="M264.8,301.4v5.5h-7.4v22.6h-6.8v-22.6h-7.4v-5.5H264.8z"/>
	<path class="st6" d="M275.9,327.9c-2.2-1.2-3.9-2.9-5.2-5.1s-1.9-4.7-1.9-7.4c0-2.7,0.6-5.2,1.9-7.4s3-3.9,5.2-5.1s4.6-1.8,7.3-1.8
		s5.1,0.6,7.3,1.8c2.2,1.2,3.9,2.9,5.2,5.1s1.9,4.7,1.9,7.4c0,2.7-0.6,5.2-1.9,7.4c-1.3,2.2-3,3.9-5.2,5.1s-4.6,1.8-7.2,1.8
		S278.1,329.1,275.9,327.9z M288.5,321.3c1.3-1.5,2-3.5,2-5.9c0-2.5-0.7-4.5-2-5.9c-1.3-1.5-3.1-2.2-5.4-2.2c-2.3,0-4.1,0.7-5.4,2.2
		c-1.3,1.5-2,3.5-2,6c0,2.5,0.7,4.5,2,5.9c1.3,1.5,3.2,2.2,5.4,2.2C285.4,323.5,287.2,322.8,288.5,321.3z"/>
	<path class="st6" d="M331.3,303.2c2.2,1.2,3.9,2.8,5.1,4.9s1.8,4.6,1.8,7.3c0,2.7-0.6,5.2-1.8,7.3s-2.9,3.8-5.2,5
		c-2.2,1.2-4.8,1.8-7.7,1.8H313v-28.1h10.5C326.5,301.4,329,302,331.3,303.2z M329.1,321.4c1.4-1.4,2.2-3.4,2.2-6
		c0-2.6-0.7-4.6-2.2-6c-1.4-1.4-3.5-2.2-6-2.2h-3.2v16.3h3.2C325.6,323.6,327.7,322.9,329.1,321.4z"/>
	<path class="st6" d="M350.5,306.9v5.7h9.2v5.3h-9.2v6.2h10.4v5.5h-17.2v-28.1h17.2v5.5H350.5z"/>
	<path class="st6" d="M100.6,356c1.2-2.2,2.9-3.9,5-5.1c2.1-1.2,4.6-1.8,7.3-1.8c3.3,0,6.2,0.9,8.6,2.6c2.4,1.8,4,4.2,4.8,7.2h-7.5
		c-0.6-1.2-1.4-2.1-2.4-2.7c-1-0.6-2.2-0.9-3.5-0.9c-2.1,0-3.8,0.7-5.1,2.2c-1.3,1.5-2,3.4-2,5.9c0,2.5,0.7,4.4,2,5.9
		c1.3,1.5,3,2.2,5.1,2.2c1.3,0,2.5-0.3,3.5-0.9c1-0.6,1.8-1.5,2.4-2.7h7.5c-0.8,3-2.4,5.4-4.8,7.2c-2.4,1.7-5.2,2.6-8.6,2.6
		c-2.7,0-5.2-0.6-7.3-1.8c-2.1-1.2-3.8-2.9-5-5.1c-1.2-2.2-1.8-4.6-1.8-7.4S99.4,358.2,100.6,356z"/>
	<path class="st6" d="M138,375.9c-2.2-1.2-3.9-2.9-5.2-5.1s-1.9-4.7-1.9-7.4c0-2.7,0.6-5.2,1.9-7.4s3-3.9,5.2-5.1s4.6-1.8,7.3-1.8
		c2.6,0,5.1,0.6,7.3,1.8s3.9,2.9,5.2,5.1c1.3,2.2,1.9,4.7,1.9,7.4c0,2.7-0.6,5.2-1.9,7.4c-1.3,2.2-3,3.9-5.2,5.1
		c-2.2,1.2-4.6,1.8-7.2,1.8C142.7,377.8,140.2,377.1,138,375.9z M150.7,369.3c1.3-1.5,2-3.5,2-5.9c0-2.5-0.7-4.5-2-5.9
		c-1.3-1.5-3.1-2.2-5.4-2.2c-2.3,0-4.1,0.7-5.4,2.2c-1.3,1.5-2,3.5-2,6c0,2.5,0.7,4.5,2,5.9c1.3,1.5,3.2,2.2,5.4,2.2
		C147.5,371.5,149.3,370.8,150.7,369.3z"/>
	<path class="st6" d="M190.2,377.5h-6.8l-11.4-17.3v17.3h-6.8v-28.1h6.8l11.4,17.4v-17.4h6.8V377.5z"/>
	<path class="st6" d="M215,349.4v5.5h-11.4v5.9h8.6v5.3h-8.6v11.4h-6.8v-28.1H215z"/>
	<path class="st6" d="M227.1,354.9v5.7h9.2v5.3h-9.2v6.2h10.4v5.5h-17.2v-28.1h17.2v5.5H227.1z"/>
	<path class="st6" d="M257.8,377.5l-5.8-10.6h-1.6v10.6h-6.8v-28.1h11.5c2.2,0,4.1,0.4,5.7,1.2s2.7,1.8,3.5,3.2
		c0.8,1.3,1.2,2.8,1.2,4.5c0,1.9-0.5,3.5-1.6,5c-1.1,1.5-2.6,2.5-4.7,3.1l6.5,11.1H257.8z M250.3,362h4.2c1.3,0,2.2-0.3,2.8-0.9
		c0.6-0.6,0.9-1.5,0.9-2.6c0-1.1-0.3-1.9-0.9-2.5c-0.6-0.6-1.6-0.9-2.8-0.9h-4.2V362z"/>
	<path class="st6" d="M278,354.9v5.7h9.2v5.3H278v6.2h10.4v5.5h-17.2v-28.1h17.2v5.5H278z"/>
	<path class="st6" d="M319.5,377.5h-6.8l-11.4-17.3v17.3h-6.8v-28.1h6.8l11.4,17.4v-17.4h6.8V377.5z"/>
	<path class="st6" d="M326.7,356c1.2-2.2,2.9-3.9,5-5.1c2.1-1.2,4.6-1.8,7.3-1.8c3.3,0,6.2,0.9,8.6,2.6c2.4,1.8,4,4.2,4.8,7.2h-7.5
		c-0.6-1.2-1.4-2.1-2.4-2.7c-1-0.6-2.2-0.9-3.5-0.9c-2.1,0-3.8,0.7-5.1,2.2c-1.3,1.5-2,3.4-2,5.9c0,2.5,0.7,4.4,2,5.9
		c1.3,1.5,3,2.2,5.1,2.2c1.3,0,2.5-0.3,3.5-0.9c1-0.6,1.8-1.5,2.4-2.7h7.5c-0.8,3-2.4,5.4-4.8,7.2c-2.4,1.7-5.2,2.6-8.6,2.6
		c-2.7,0-5.2-0.6-7.3-1.8c-2.1-1.2-3.8-2.9-5-5.1c-1.2-2.2-1.8-4.6-1.8-7.4S325.5,358.2,326.7,356z"/>
	<path class="st6" d="M365,349.4v28.1h-6.8v-28.1H365z"/>
	<path class="st6" d="M389,372.5h-10.5l-1.7,5h-7.2l10.2-28.1h7.9l10.2,28.1h-7.2L389,372.5z M387.3,367.2l-3.5-10.3l-3.4,10.3
		H387.3z"/>
</g>
</svg>
