<?xml version="1.0" encoding="utf-8"?>
<!-- Generator: Adobe Illustrator 25.0.1, SVG Export Plug-In . SVG Version: 6.00 Build 0)  -->
<svg version="1.1" id="Capa_1" xmlns="http://www.w3.org/2000/svg" xmlns:xlink="http://www.w3.org/1999/xlink" x="0px" y="0px"
	 viewBox="0 0 500 500" style="enable-background:new 0 0 500 500;" xml:space="preserve">
<style type="text/css">
	.st0{fill:#FFFFFF;stroke:#62C3BB;stroke-width:6;stroke-miterlimit:10;}
	.st1{fill:#EAB655;}
	.st2{fill:#7061C8;}
	.st3{fill:#3D67C5;}
</style>
<g>
	<g id="referencias">
		<g>
			<circle class="st0" cx="250" cy="250" r="202.1"/>
			<path class="st1" d="M323.2,371h-16.8c-1.9,0-3.4-1.8-2.9-3.7l6-19.1c0.3-1.3,1.5-2.2,2.9-2.2h4.4c1.3,0,2.5,0.9,2.9,2.2
				l6.4,19.1C326.6,369.1,325.2,371,323.2,371z"/>
			<circle class="st1" cx="314.9" cy="328.5" r="9"/>
			<path class="st2" d="M330,244.6v39.7c-0.5,1.8-3.2,9.5-12.1,17.5v-51.5L330,244.6z"/>
			<path class="st2" d="M308.9,254.5v53.9c-11.9,7.1-30.2,13-58.4,13c-20.4,0-48.4-3.3-66.6-18.9c-9.5-8.1-12.3-16.3-12.9-18.2
				v-39.4l75.2,35c1.4,0.6,2.8,1,4.3,1s2.9-0.3,4.3-1L308.9,254.5z"/>
			<path class="st3" d="M366.3,216.9c0,0.3-0.1,0.8-0.7,1.1L313,242.6l-60.6-29.7c-2.2-1.1-4.9-0.2-6,2.1c-1.1,2.2-0.2,4.9,2.1,6
				l54.2,26.5L251,271.7c-0.3,0.2-0.7,0.2-1,0l-115.6-53.8c-0.6-0.3-0.7-0.7-0.7-1.1s0.1-0.8,0.7-1.1L250,161
				c0.2-0.1,0.3-0.1,0.5-0.1s0.4,0,0.5,0.1l114.7,54.7C366.2,216.1,366.4,216.5,366.3,216.9z"/>
		</g>
	</g>
	<g id="vectores">
	</g>
</g>
</svg>
