<?xml version="1.0" encoding="utf-8"?>
<!-- Generator: Adobe Illustrator 25.4.1, SVG Export Plug-In . SVG Version: 6.00 Build 0)  -->
<svg version="1.1" xmlns="http://www.w3.org/2000/svg" xmlns:xlink="http://www.w3.org/1999/xlink" x="0px" y="0px"
	 viewBox="0 0 500 500" style="enable-background:new 0 0 500 500;" xml:space="preserve">
<style type="text/css">
	.st0{fill:#62C3BB;}
	.st1{fill:#336964;}
	.st2{fill:#3C8B83;}
	.st3{fill:#76C4BE;}
	.st4{fill:#255B55;}
	.st5{fill:none;stroke:#62C3BB;stroke-width:6;stroke-miterlimit:10;}
	.st6{fill:#EAB655;}
	.st7{fill:#6382C7;}
	.st8{fill:#FFFFFF;}
	.st9{fill:#3D67C5;}
	.st10{fill:#4D3BC7;}
	.st11{fill:#2C2172;}
	.st12{fill:#7061C8;}
	.st13{fill:#ECC57A;}
	.st14{fill:#100662;}
	.st15{fill:#052260;}
	.st16{fill:#0B3594;}
	.st17{fill:#233B70;}
	.st18{fill:none;stroke:#052260;stroke-width:6;stroke-miterlimit:10;}
	.st19{fill:#A6823C;}
	.st20{fill:#8E641F;}
	.st21{fill:none;stroke:#EAB655;stroke-width:6;stroke-miterlimit:10;}
	.st22{fill:#190F97;}
	.st23{fill:none;stroke:#4D3BC7;stroke-width:6;stroke-miterlimit:10;}
</style>
<g id="referencias">
	<g>
		<g>
			<path class="st0" d="M250,3.8v26.7c-97.5,0-180.2,63.6-208.8,151.6l-25.5-8.3c11.8-36.5,32.2-70,60.2-98
				C122.4,29.4,184.2,3.8,250,3.8z"/>
			<path class="st1" d="M121,427.6l-15.7,21.6c-10.3-7.5-20.2-15.9-29.4-25.1C29.4,377.6,3.8,315.8,3.8,250
				c0-26.2,4.1-51.9,11.9-76.1l25.5,8.3c-6.9,21.4-10.7,44.2-10.7,67.9C30.5,323,66.2,387.7,121,427.6z"/>
			<path class="st2" d="M394.8,449.2c-41.8,30.5-92,47-144.8,47c-52.7,0-102.9-16.5-144.7-47l15.7-21.6
				c36.2,26.4,80.8,41.9,129,41.9s92.8-15.5,129-41.9L394.8,449.2z"/>
			<path class="st3" d="M496.2,250c0,65.8-25.6,127.6-72.1,174.1c-9.2,9.2-19,17.6-29.4,25.1L379,427.6
				c54.8-39.9,90.5-104.6,90.5-177.6c0-23.7-3.8-46.5-10.7-67.9l25.5-8.3C492.1,198.1,496.2,223.8,496.2,250z"/>
			<path class="st4" d="M484.3,173.9l-25.5,8.3C430.2,94.1,347.5,30.5,250,30.5V3.8c65.8,0,127.6,25.6,174.1,72.1
				C452,103.8,472.5,137.3,484.3,173.9z"/>
		</g>
		<circle class="st0" cx="250" cy="250" r="202.1"/>
		<g>
			<path class="st8" d="M383.7,191.7c0.1,0.4,0.1,0.9,0.1,1.3V332c5.4-0.2,10.9-0.6,16.5-1.3V190.4
				C396.6,190.8,390.8,191.3,383.7,191.7z"/>
			<path class="st8" d="M121.7,330.8c5.5,0.7,11,1.1,16.4,1.3V194.4c0-1,0.2-2,0.6-2.8c-7.2-0.3-13-0.8-17-1.3V330.8z"/>
			<path class="st8" d="M345.2,197.8l0,3.8l0.1,17.6c1.1,1.8,1.7,4,1.7,6.2v7.2c0,1.5-0.2,2.9-0.7,4.2l1.9,5.8l0.4,1.4v1.4
				c0,3.2-0.9,9.1-6.9,11.7c-2.9,1.3-5.8,1.3-9.5,1.3c-6,0-9.4-2.6-11.2-4.8c-3.4-4.1-2.8-8.7-2.5-10l0.1-0.5l0.2-0.5l1.9-5.8
				c-0.5-1.3-0.7-2.7-0.7-4.2v-7.2c0-2.3,0.6-4.4,1.7-6.3l0.1-15.6v-0.2l-9.7,3.3c-0.1,10.7-0.2,35.7-0.2,43.4
				c0,12.8-9.6,16.9-10.1,17.1l-0.5,0.2l-24.5,6.7l-4.5,1.2l-4.5,1.2l-3.3,0.9v45.8c9.8,4.9,56.2,26.2,110.3,19.1v-1.1v-4.5v-4.5
				V196.1C368.8,196.9,358.6,197.9,345.2,197.8z"/>
			<path class="st8" d="M248.3,277.8c-1.4-0.3-2.9-0.7-4.5-1.1c-9.2-2.2-21.6-5.5-29.1-8.6c-12.3-5-14.5-16.7-13.9-22.5v-38.7
				l-26.8-9.2c-12.4,0-21.7-1-26.9-1.7v136.1v4.5v4.5v1.2c53,7.1,98-13.7,108.4-19v-43.9c-0.2,0-1.2-0.3-2.7-0.6
				C251.6,278.5,250.1,278.2,248.3,277.8z"/>
			<path class="st8" d="M267.8,267.3l4.5-1.2l4.5-1.2l21.8-6c0.8-0.4,4.3-2.7,4.3-8.7c0-7,0.1-28.5,0.1-40.4l-26.3,9l-9,3.1
				l-3.3,1.1l-4.5,1.5l-0.5,0.2c-1.1,0.4-2.2,0.6-3.4,0.6c-0.2,0-0.4,0-0.6,0c-0.9,0-1.8-0.2-2.7-0.5c0,0-0.1,0-0.1,0l-4.4-1.5
				l-4.5-1.5l-34-11.6v36.2l0,0.3c-0.1,0.9-0.8,9.7,8.3,13.3c6.5,2.6,17.2,5.5,25.8,7.6c1.6,0.4,3.1,0.8,4.5,1.1
				c1.7,0.4,3.2,0.8,4.5,1.1c1.1,0.2,2,0.5,2.7,0.6c0.3,0.1,0.6,0.1,0.9,0.2l3.6-1l4.5-1.2L267.8,267.3z"/>
			<path class="st8" d="M327.4,245.4c0,0-0.8,4,4.9,4s7.3,0,7.3-4l-3.3-10v-0.1c1-0.4,1.6-1.5,1.6-2.7v-7.2c0-1.3-0.7-2.4-1.7-2.8
				l-0.1-21.1l-5.4,2l-0.1,19c-1,0.3-1.7,1.5-1.7,2.8v7.2c0,1.3,0.7,2.4,1.6,2.7v0.1L327.4,245.4z"/>
			<path class="st8" d="M174.8,188.5l0.7,0.2l6.3,2.2l5.9,2l11,3.8l15.5,5.3h0.1l29.5,10.1l9,3.1l2.7,0.9l0.1,0c0.3,0.1,0.7,0.1,1,0
				l3.4-1.2l4.5-1.5l3.3-1.1l4.5-1.5l4.5-1.5l21.6-7.4h0.1l16.4-5.6l10.9-3.7h0l5.7-2l5.6-1.9l0.2-0.1c0.9-0.3,1-0.9,1-1.4
				c0-0.2,0-0.3-0.1-0.5c-0.1-0.4-0.4-0.7-1-0.9l-11.3-3.4l-69.5-20.9c0,0-0.1,0-0.3-0.1h-0.1c-0.2,0-0.3,0-0.4,0.1l-66,19.9
				l-14.8,4.4c-0.8,0.2-1,0.8-1,1.2c0,0.1,0,0.1,0,0.2C173.8,187.6,174,188.2,174.8,188.5z"/>
		</g>
	</g>
</g>
<g id="vectores">
</g>
</svg>
