<?xml version="1.0" encoding="utf-8"?>
<!-- Generator: Adobe Illustrator 25.0.1, SVG Export Plug-In . SVG Version: 6.00 Build 0)  -->
<svg version="1.1" id="Capa_1" xmlns="http://www.w3.org/2000/svg" xmlns:xlink="http://www.w3.org/1999/xlink" x="0px" y="0px"
	 viewBox="0 0 500 500" style="enable-background:new 0 0 500 500;" xml:space="preserve">
<style type="text/css">
	.st0{fill:#FFFFFF;}
	.st1{fill:#FFFFFF;stroke:#62C3BB;stroke-width:6;stroke-miterlimit:10;}
	.st2{fill:#EAB655;}
	.st3{fill:#6382C7;}
	.st4{fill:#62C3BB;}
</style>
<g>
	<circle class="st0" cx="250" cy="251.9" r="226.1"/>
	<g id="referencias">
		<g>
			<circle class="st1" cx="250" cy="250" r="202.1"/>
			<g>
				<path class="st2" d="M372.7,189.2c0.1,0.4,0.1,0.9,0.1,1.3v139.1c5.4-0.2,10.9-0.6,16.5-1.3V187.9
					C385.6,188.3,379.8,188.8,372.7,189.2z"/>
				<path class="st2" d="M110.7,328.2c5.5,0.7,11,1.1,16.4,1.3V191.9c0-1,0.2-2,0.6-2.8c-7.2-0.3-13-0.8-17-1.3V328.2z"/>
				<path class="st3" d="M334.2,195.3v3.8l0.1,17.6c1.1,1.8,1.7,4,1.7,6.2v7.2c0,1.5-0.2,2.9-0.7,4.2l1.9,5.8l0.4,1.4v1.4
					c0,3.2-0.9,9.1-6.9,11.7c-2.9,1.3-5.8,1.3-9.5,1.3c-6,0-9.4-2.6-11.2-4.8c-3.4-4.1-2.8-8.7-2.5-10l0.1-0.5l0.2-0.5l1.9-5.8
					c-0.5-1.3-0.7-2.7-0.7-4.2v-7.2c0-2.3,0.6-4.4,1.7-6.3l0.1-15.6v-0.2l-9.7,3.3c-0.1,10.7-0.2,35.7-0.2,43.4
					c0,12.8-9.6,16.9-10.1,17.1l-0.5,0.2l-24.5,6.7l-4.5,1.2l-4.5,1.2l-3.3,0.9v45.8c9.8,4.9,56.2,26.2,110.3,19.1v-1.1v-4.5v-4.5
					v-136C357.8,194.4,347.6,195.3,334.2,195.3z"/>
				<path class="st3" d="M237.3,275.3c-1.4-0.3-2.9-0.7-4.5-1.1c-9.2-2.2-21.6-5.5-29.1-8.6c-12.3-5-14.5-16.7-13.9-22.5v-38.7
					l-26.8-9.2c-12.4,0-21.7-1-26.9-1.7v136.1v4.5v4.5v1.2c53,7.1,98-13.7,108.4-19v-43.9c-0.2,0-1.2-0.3-2.7-0.6
					C240.6,276,239.1,275.7,237.3,275.3z"/>
				<path class="st4" d="M256.8,264.8l4.5-1.2l4.5-1.2l21.8-6c0.8-0.4,4.3-2.7,4.3-8.7c0-7,0.1-28.5,0.1-40.4l-26.3,9l-9,3.1
					l-3.3,1.1L249,222l-0.5,0.2c-1.1,0.4-2.2,0.6-3.4,0.6c-0.2,0-0.4,0-0.6,0c-0.9,0-1.8-0.2-2.7-0.5h-0.1l-4.4-1.5l-4.5-1.5
					l-34-11.6v36.2v0.3c-0.1,0.9-0.8,9.7,8.3,13.3c6.5,2.6,17.2,5.5,25.8,7.6c1.6,0.4,3.1,0.8,4.5,1.1c1.7,0.4,3.2,0.8,4.5,1.1
					c1.1,0.2,2,0.5,2.7,0.6c0.3,0.1,0.6,0.1,0.9,0.2l3.6-1l4.5-1.2L256.8,264.8z"/>
				<path class="st4" d="M316.4,242.9c0,0-0.8,4,4.9,4s7.3,0,7.3-4l-3.3-10v-0.1c1-0.4,1.6-1.5,1.6-2.7v-7.2c0-1.3-0.7-2.4-1.7-2.8
					l-0.1-21.1l-5.4,2l-0.1,19c-1,0.3-1.7,1.5-1.7,2.8v7.2c0,1.3,0.7,2.4,1.6,2.7v0.1L316.4,242.9z"/>
				<path class="st4" d="M163.8,186l0.7,0.2l6.3,2.2l5.9,2l11,3.8l15.5,5.3h0.1l29.5,10.1l9,3.1l2.7,0.9h0.1c0.3,0.1,0.7,0.1,1,0
					l3.4-1.2l4.5-1.5l3.3-1.1l4.5-1.5l4.5-1.5l21.6-7.4h0.1l16.4-5.6l10.9-3.7l0,0l5.7-2l5.6-1.9l0.2-0.1c0.9-0.3,1-0.9,1-1.4
					c0-0.2,0-0.3-0.1-0.5c-0.1-0.4-0.4-0.7-1-0.9l-11.3-3.4L245.4,159c0,0-0.1,0-0.3-0.1H245c-0.2,0-0.3,0-0.4,0.1l-66,19.9
					l-14.8,4.4c-0.8,0.2-1,0.8-1,1.2c0,0.1,0,0.1,0,0.2C162.8,185.1,163,185.7,163.8,186z"/>
			</g>
		</g>
	</g>
	<g id="vectores">
	</g>
</g>
</svg>
