<?xml version="1.0" encoding="utf-8"?>
<!-- Generator: Adobe Illustrator 25.4.1, SVG Export Plug-In . SVG Version: 6.00 Build 0)  -->
<svg version="1.1" xmlns="http://www.w3.org/2000/svg" xmlns:xlink="http://www.w3.org/1999/xlink" x="0px" y="0px"
	 viewBox="0 0 500 500" style="enable-background:new 0 0 500 500;" xml:space="preserve">
<style type="text/css">
	.st0{fill:#62C3BB;}
	.st1{fill:#336964;}
	.st2{fill:#3C8B83;}
	.st3{fill:#76C4BE;}
	.st4{fill:#255B55;}
	.st5{fill:none;stroke:#62C3BB;stroke-width:6;stroke-miterlimit:10;}
	.st6{fill:#EAB655;}
	.st7{fill:#6382C7;}
	.st8{fill:#FFFFFF;}
	.st9{fill:#3D67C5;}
	.st10{fill:#4D3BC7;}
	.st11{fill:#2C2172;}
	.st12{fill:#7061C8;}
	.st13{fill:#ECC57A;}
	.st14{fill:#100662;}
	.st15{fill:#052260;}
	.st16{fill:#0B3594;}
	.st17{fill:#233B70;}
	.st18{fill:none;stroke:#052260;stroke-width:6;stroke-miterlimit:10;}
	.st19{fill:#A6823C;}
	.st20{fill:#8E641F;}
	.st21{fill:none;stroke:#EAB655;stroke-width:6;stroke-miterlimit:10;}
	.st22{fill:#190F97;}
	.st23{fill:none;stroke:#4D3BC7;stroke-width:6;stroke-miterlimit:10;}
</style>
<g id="referencias">
	<g>
		<g>
			<path class="st0" d="M250,7.6v26.7c-97.5,0-180.2,63.6-208.8,151.6l-25.5-8.3c11.8-36.5,32.2-70,60.2-98
				C122.4,33.2,184.2,7.6,250,7.6z"/>
			<path class="st1" d="M121,431.4L105.3,453c-10.3-7.5-20.2-15.9-29.4-25.1C29.4,381.4,3.8,319.6,3.8,253.8
				c0-26.2,4.1-51.9,11.9-76.1l25.5,8.3c-6.9,21.4-10.7,44.2-10.7,67.9C30.5,326.8,66.2,391.5,121,431.4z"/>
			<path class="st2" d="M394.8,453c-41.8,30.5-92,47-144.8,47c-52.7,0-102.9-16.5-144.7-47l15.7-21.6c36.2,26.4,80.8,41.9,129,41.9
				s92.8-15.5,129-41.9L394.8,453z"/>
			<path class="st3" d="M496.2,253.8c0,65.8-25.6,127.6-72.1,174.1c-9.2,9.2-19,17.6-29.4,25.1L379,431.4
				c54.8-39.9,90.5-104.6,90.5-177.6c0-23.7-3.8-46.5-10.7-67.9l25.5-8.3C492.1,201.9,496.2,227.6,496.2,253.8z"/>
			<path class="st4" d="M484.3,177.7l-25.5,8.3C430.2,97.9,347.5,34.3,250,34.3V7.6c65.8,0,127.6,25.6,174.1,72.1
				C452,107.6,472.5,141.1,484.3,177.7z"/>
		</g>
		<circle class="st0" cx="250" cy="253.8" r="202.1"/>
		<path class="st8" d="M284.4,190.6v-46.8h25v46.6l-9.8-6.8c-1.5-1.1-3.6-1.1-5.1,0L284.4,190.6z"/>
		<path class="st8" d="M165.1,163.4V334c5.1-3.4,11.4-4.6,19-4.9l0.3-185.1h0C176.4,145,165.1,148.8,165.1,163.4z"/>
		<path class="st8" d="M326.6,143.8h-8v55.3c0,1.7-0.9,3.2-2.4,4c-0.7,0.4-1.4,0.5-2.1,0.5c-0.9,0-1.8-0.3-2.6-0.8l-14.4-10.1
			l-14.5,10.1c-1.4,0.9-3.1,1.1-4.6,0.3c-1.5-0.8-2.4-2.3-2.5-3.9v-55.4h-82.1L193.1,329v0.1h141.8V152.1
			C334.9,147.5,331.2,143.8,326.6,143.8z"/>
		<path class="st8" d="M309.5,190.4l-9.8-6.8c-1.5-1.1-3.6-1.1-5.1,0l-10.1,7v-46.8h25V190.4z"/>
		<path class="st8" d="M329.3,350.9c0,5.3,1.1,9.6,2.4,12.9H178.1c-3.2,0-6.1-1.1-8.3-2.9c-2.8-2.3-4.7-5.8-4.7-9.8
			c0-2.2,0.6-4.3,1.6-6.2l0.1-0.1c0.6-1.1,1.3-2,2.2-2.9c2.4-2.4,5.6-3.8,9.2-3.8h153.7C330.4,341.4,329.3,345.8,329.3,350.9z"/>
	</g>
</g>
<g id="vectores">
</g>
</svg>
