<?xml version="1.0" encoding="utf-8"?>
<!-- Generator: Adobe Illustrator 25.0.1, SVG Export Plug-In . SVG Version: 6.00 Build 0)  -->
<svg version="1.1" id="Capa_1" xmlns="http://www.w3.org/2000/svg" xmlns:xlink="http://www.w3.org/1999/xlink" x="0px" y="0px"
	 viewBox="0 0 500 500" style="enable-background:new 0 0 500 500;" xml:space="preserve">
<style type="text/css">
	.st0{fill:#FFFFFF;stroke:#62C3BB;stroke-width:6;stroke-miterlimit:10;}
	.st1{fill:#7061C8;}
	.st2{fill:#62C3BB;}
	.st3{fill:#EAB655;}
	.st4{fill:#2C2172;}
</style>
<g>
	<g id="referencias">
		<g>
			<circle class="st0" cx="250" cy="250" r="202.1"/>
			<path class="st1" d="M284.4,186.8V140h25v46.6l-9.8-6.8c-1.5-1.1-3.6-1.1-5.1,0L284.4,186.8z"/>
			<path class="st2" d="M165.1,159.6v170.6c5.1-3.4,11.4-4.6,19-4.9l0.3-185.1l0,0C176.4,141.2,165.1,145,165.1,159.6z"/>
			<path class="st1" d="M326.6,140h-8v55.3c0,1.7-0.9,3.2-2.4,4c-0.7,0.4-1.4,0.5-2.1,0.5c-0.9,0-1.8-0.3-2.6-0.8l-14.4-10l-14.5,10
				c-1.4,0.9-3.1,1.1-4.6,0.3s-2.4-2.3-2.5-3.9V140h-82.1l-0.3,185.2v0.1h141.8v-177C334.9,143.7,331.2,140,326.6,140z"/>
			<path class="st3" d="M309.5,186.6l-9.8-6.8c-1.5-1.1-3.6-1.1-5.1,0l-10.1,7V140h25V186.6z"/>
			<path class="st4" d="M329.3,347.1c0,5.3,1.1,9.6,2.4,12.9H178.1c-3.2,0-6.1-1.1-8.3-2.9c-2.8-2.3-4.7-5.8-4.7-9.8
				c0-2.2,0.6-4.3,1.6-6.2l0.1-0.1c0.6-1.1,1.3-2,2.2-2.9c2.4-2.4,5.6-3.8,9.2-3.8h153.7C330.4,337.6,329.3,342,329.3,347.1z"/>
		</g>
	</g>
	<g id="vectores">
	</g>
</g>
</svg>
