<?xml version="1.0" encoding="utf-8"?>
<!-- Generator: Adobe Illustrator 25.0.1, SVG Export Plug-In . SVG Version: 6.00 Build 0)  -->
<svg version="1.1" id="Capa_1" xmlns="http://www.w3.org/2000/svg" xmlns:xlink="http://www.w3.org/1999/xlink" x="0px" y="0px"
	 viewBox="0 0 500 500" style="enable-background:new 0 0 500 500;" xml:space="preserve">
<style type="text/css">
	.st0{fill:#FFFFFF;stroke:#62C3BB;stroke-width:6;stroke-miterlimit:10;}
	.st1{fill:#7061C8;}
	.st2{fill:#62C3BB;}
	.st3{fill:#EAB655;}
	.st4{fill:#2C2172;}
	.st5{fill:#64C0B9;}
</style>
<g>
	<g id="referencias">
		<g>
			<circle class="st0" cx="250" cy="250" r="202.1"/>
			<path class="st1" d="M284.4,146.8V100h25v46.6l-9.8-6.8c-1.5-1.1-3.6-1.1-5.1,0L284.4,146.8z"/>
			<path class="st2" d="M165.1,119.6v170.6c5.1-3.4,11.4-4.6,19-4.9l0.3-185.1l0,0C176.4,101.2,165.1,105,165.1,119.6z"/>
			<path class="st1" d="M326.6,100h-8v55.3c0,1.7-0.9,3.2-2.4,4c-0.7,0.4-1.4,0.5-2.1,0.5c-0.9,0-1.8-0.3-2.6-0.8l-14.4-10l-14.5,10
				c-1.4,0.9-3.1,1.1-4.6,0.3s-2.4-2.3-2.5-3.9V100h-82.1l-0.3,185.2v0.1h141.8v-177C334.9,103.7,331.2,100,326.6,100z"/>
			<path class="st3" d="M309.5,146.6l-9.8-6.8c-1.5-1.1-3.6-1.1-5.1,0l-10.1,7V100h25V146.6z"/>
			<path class="st4" d="M329.3,307.1c0,5.3,1.1,9.6,2.4,12.9H178.1c-3.2,0-6.1-1.1-8.3-2.9c-2.8-2.3-4.7-5.8-4.7-9.8
				c0-2.2,0.6-4.3,1.6-6.2l0.1-0.1c0.6-1.1,1.3-2,2.2-2.9c2.4-2.4,5.6-3.8,9.2-3.8h153.7C330.4,297.6,329.3,302,329.3,307.1z"/>
		</g>
	</g>
	<g id="vectores">
	</g>
</g>
<g>
	<path class="st5" d="M116.5,346c1.2-2.2,2.9-3.9,5-5.1c2.1-1.2,4.6-1.8,7.3-1.8c3.3,0,6.2,0.9,8.6,2.6c2.4,1.8,4,4.2,4.8,7.2h-7.5
		c-0.6-1.2-1.4-2.1-2.4-2.7c-1-0.6-2.2-0.9-3.5-0.9c-2.1,0-3.8,0.7-5.1,2.2c-1.3,1.5-2,3.4-2,5.9c0,2.5,0.7,4.4,2,5.9
		c1.3,1.5,3,2.2,5.1,2.2c1.3,0,2.5-0.3,3.5-0.9c1-0.6,1.8-1.5,2.4-2.7h7.5c-0.8,3-2.4,5.4-4.8,7.2c-2.4,1.7-5.2,2.6-8.6,2.6
		c-2.7,0-5.2-0.6-7.3-1.8c-2.1-1.2-3.8-2.9-5-5.1c-1.2-2.2-1.8-4.6-1.8-7.4S115.3,348.2,116.5,346z"/>
	<path class="st5" d="M165.4,362.5h-10.5l-1.7,5h-7.2l10.2-28.1h7.9l10.2,28.1h-7.2L165.4,362.5z M163.6,357.2l-3.5-10.3l-3.4,10.3
		H163.6z"/>
	<path class="st5" d="M199.3,352.9c-0.7,1.3-1.9,2.4-3.4,3.3c-1.5,0.8-3.5,1.2-5.8,1.2h-4.2v10.1H179v-28.1h11.1
		c2.2,0,4.1,0.4,5.7,1.2c1.5,0.8,2.7,1.8,3.5,3.2c0.8,1.4,1.2,2.9,1.2,4.7C200.4,350.1,200,351.6,199.3,352.9z M192.5,351
		c0.6-0.6,1-1.5,1-2.6s-0.3-2-1-2.6s-1.6-0.9-2.9-0.9h-3.7v7h3.7C190.9,352,191.8,351.7,192.5,351z"/>
	<path class="st5" d="M213.6,333.8l-9.6,4v-4.7l9.6-4.6V333.8z M212.4,339.4v28.1h-6.8v-28.1H212.4z"/>
	<path class="st5" d="M239.2,339.4v5.5h-7.4v22.6h-6.8v-22.6h-7.4v-5.5H239.2z"/>
	<path class="st5" d="M250.9,339.4v16.8c0,1.7,0.4,3,1.2,3.9c0.8,0.9,2,1.4,3.6,1.4s2.8-0.5,3.7-1.4c0.9-0.9,1.3-2.2,1.3-3.9v-16.8
		h6.8v16.8c0,2.5-0.5,4.6-1.6,6.4s-2.5,3-4.3,3.9c-1.8,0.9-3.8,1.3-6,1.3s-4.2-0.4-5.9-1.3c-1.7-0.9-3.1-2.2-4.1-3.9
		c-1-1.7-1.5-3.9-1.5-6.4v-16.8H250.9z"/>
	<path class="st5" d="M280.8,362.2h9v5.3H274v-28.1h6.8V362.2z"/>
	<path class="st5" d="M300.7,365.9c-2.2-1.2-3.9-2.9-5.2-5.1c-1.3-2.2-1.9-4.7-1.9-7.4c0-2.7,0.6-5.2,1.9-7.4c1.3-2.2,3-3.9,5.2-5.1
		c2.2-1.2,4.6-1.8,7.3-1.8c2.6,0,5.1,0.6,7.3,1.8s3.9,2.9,5.2,5.1c1.3,2.2,1.9,4.7,1.9,7.4c0,2.7-0.6,5.2-1.9,7.4
		c-1.3,2.2-3,3.9-5.2,5.1s-4.6,1.8-7.2,1.8C305.3,367.8,302.9,367.1,300.7,365.9z M313.3,359.3c1.3-1.5,2-3.5,2-5.9
		c0-2.5-0.7-4.5-2-5.9c-1.3-1.5-3.1-2.2-5.4-2.2c-2.3,0-4.1,0.7-5.4,2.2c-1.3,1.5-2,3.5-2,6c0,2.5,0.7,4.5,2,5.9
		c1.3,1.5,3.2,2.2,5.4,2.2C310.2,361.5,312,360.8,313.3,359.3z"/>
	<path class="st5" d="M356.1,341.2c2.2,1.2,3.9,2.8,5.1,4.9c1.2,2.1,1.8,4.6,1.8,7.3c0,2.7-0.6,5.2-1.8,7.3c-1.2,2.1-2.9,3.8-5.2,5
		s-4.8,1.8-7.7,1.8h-10.5v-28.1h10.5C351.3,339.4,353.9,340,356.1,341.2z M353.9,359.4c1.4-1.4,2.2-3.4,2.2-6c0-2.6-0.7-4.6-2.2-6
		c-1.4-1.4-3.5-2.2-6-2.2h-3.2v16.3h3.2C350.5,361.6,352.5,360.9,353.9,359.4z"/>
	<path class="st5" d="M375.3,344.9v5.7h9.2v5.3h-9.2v6.2h10.4v5.5h-17.2v-28.1h17.2v5.5H375.3z"/>
	<path class="st5" d="M163.3,387.4v16.8c0,1.7,0.4,3,1.2,3.9c0.8,0.9,2,1.4,3.6,1.4s2.8-0.5,3.7-1.4c0.9-0.9,1.3-2.2,1.3-3.9v-16.8
		h6.8v16.8c0,2.5-0.5,4.6-1.6,6.4c-1.1,1.7-2.5,3-4.3,3.9s-3.8,1.3-6,1.3c-2.2,0-4.2-0.4-5.9-1.3c-1.7-0.9-3.1-2.2-4.1-3.9
		c-1-1.7-1.5-3.9-1.5-6.4v-16.8H163.3z"/>
	<path class="st5" d="M211.5,415.5h-6.8l-11.4-17.3v17.3h-6.8v-28.1h6.8l11.4,17.4v-17.4h6.8V415.5z"/>
	<path class="st5" d="M235,410.2h9v5.3h-15.8v-28.1h6.8V410.2z"/>
	<path class="st5" d="M255.7,387.4v28.1h-6.8v-28.1H255.7z"/>
	<path class="st5" d="M283.2,403.5c1,1.3,1.5,2.7,1.5,4.3c0,2.3-0.8,4.2-2.5,5.6c-1.6,1.4-3.9,2.1-6.9,2.1h-13.1v-28.1h12.6
		c2.9,0,5.1,0.7,6.7,2c1.6,1.3,2.4,3.1,2.4,5.3c0,1.7-0.4,3-1.3,4.1s-2,1.9-3.5,2.3C280.9,401.4,282.2,402.2,283.2,403.5z
		 M269.1,398.8h4.5c1.1,0,2-0.2,2.6-0.7c0.6-0.5,0.9-1.2,0.9-2.2s-0.3-1.7-0.9-2.2c-0.6-0.5-1.5-0.8-2.6-0.8h-4.5V398.8z
		 M276.8,409.2c0.6-0.5,0.9-1.3,0.9-2.3s-0.3-1.8-1-2.3c-0.7-0.6-1.6-0.8-2.7-0.8h-5v6.2h5C275.3,410,276.2,409.7,276.8,409.2z"/>
	<path class="st5" d="M304.5,415.5l-5.8-10.6h-1.6v10.6h-6.8v-28.1h11.5c2.2,0,4.1,0.4,5.7,1.2c1.6,0.8,2.7,1.8,3.5,3.2
		c0.8,1.3,1.2,2.8,1.2,4.5c0,1.9-0.5,3.5-1.6,5c-1.1,1.5-2.6,2.5-4.7,3.1l6.5,11.1H304.5z M297.1,400h4.2c1.3,0,2.2-0.3,2.8-0.9
		c0.6-0.6,0.9-1.5,0.9-2.6c0-1.1-0.3-1.9-0.9-2.5c-0.6-0.6-1.6-0.9-2.8-0.9h-4.2V400z"/>
	<path class="st5" d="M323.9,413.9c-2.2-1.2-3.9-2.9-5.2-5.1c-1.3-2.2-1.9-4.7-1.9-7.4c0-2.7,0.6-5.2,1.9-7.4c1.3-2.2,3-3.9,5.2-5.1
		c2.2-1.2,4.6-1.8,7.3-1.8c2.6,0,5.1,0.6,7.3,1.8s3.9,2.9,5.2,5.1s1.9,4.7,1.9,7.4c0,2.7-0.6,5.2-1.9,7.4c-1.3,2.2-3,3.9-5.2,5.1
		c-2.2,1.2-4.6,1.8-7.2,1.8C328.5,415.8,326.1,415.1,323.9,413.9z M336.6,407.3c1.3-1.5,2-3.5,2-5.9c0-2.5-0.7-4.5-2-5.9
		c-1.3-1.5-3.1-2.2-5.4-2.2c-2.3,0-4.1,0.7-5.4,2.2c-1.3,1.5-2,3.5-2,6c0,2.5,0.7,4.5,2,5.9c1.3,1.5,3.2,2.2,5.4,2.2
		C333.4,409.5,335.2,408.8,336.6,407.3z"/>
</g>
</svg>
